<?xml version="1.0" encoding="utf-8"?>
<!-- Generator: Adobe Illustrator 16.0.4, SVG Export Plug-In . SVG Version: 6.00 Build 0)  -->
<!DOCTYPE svg PUBLIC "-//W3C//DTD SVG 1.1//EN" "http://www.w3.org/Graphics/SVG/1.1/DTD/svg11.dtd">
<svg version="1.1" id="Capa_1" xmlns="http://www.w3.org/2000/svg" xmlns:xlink="http://www.w3.org/1999/xlink" x="0px" y="0px"
	 width="70px" height="70px" viewBox="0 0 70 70" enable-background="new 0 0 70 70" xml:space="preserve">
<g>
	<g>
		<g>
			<g>
				<ellipse fill-rule="evenodd" clip-rule="evenodd" fill="#E72765" cx="35.025" cy="35.001" rx="34.975" ry="34.999"/>
			</g>
			<g opacity="0.2">
				<path fill-rule="evenodd" clip-rule="evenodd" fill="#402823" d="M35.025,69.603c-19.253,0-34.869-15.566-34.973-34.808
					c0,0.069-0.003,0.138-0.003,0.207C0.05,54.331,15.709,70,35.025,70S70,54.331,70,35.002c0-0.067-0.002-0.133-0.002-0.199
					C69.891,54.04,54.275,69.603,35.025,69.603z"/>
			</g>
			<g opacity="0.2">
				<path fill-rule="evenodd" clip-rule="evenodd" fill="#FFFFFF" d="M34.976,0.398c-19.253,0-34.869,15.566-34.973,34.808
					C0.002,35.137,0,35.068,0,34.999C0,15.67,15.658,0,34.975,0s34.975,15.67,34.975,34.999c0,0.066-0.002,0.133-0.002,0.199
					C69.84,15.961,54.225,0.398,34.976,0.398z"/>
			</g>
		</g>
		<g>
			<path fill="none" d="M39.168,69.607c-0.072-0.062-0.139-0.127-0.199-0.199c-0.072-0.061-0.138-0.127-0.199-0.199
				c-0.071-0.061-0.137-0.127-0.198-0.198c-0.071-0.062-0.138-0.127-0.198-0.199c-0.072-0.061-0.139-0.127-0.199-0.198
				c-0.072-0.062-0.137-0.128-0.199-0.199c-0.071-0.062-0.137-0.127-0.198-0.199c-0.071-0.061-0.138-0.127-0.198-0.198
				c-0.072-0.062-0.139-0.127-0.199-0.199c-0.072-0.061-0.137-0.127-0.199-0.199c-0.071-0.061-0.137-0.127-0.198-0.198
				c-0.071-0.062-0.138-0.127-0.198-0.199c-0.072-0.061-0.138-0.127-0.199-0.199c-0.072-0.061-0.137-0.127-0.199-0.198
				c-0.071-0.062-0.137-0.127-0.197-0.199c-0.072-0.061-0.139-0.127-0.199-0.198c-0.072-0.062-0.138-0.128-0.199-0.199
				c-0.072-0.062-0.137-0.127-0.199-0.199c-0.07-0.061-0.137-0.127-0.197-0.198c-0.072-0.062-0.139-0.127-0.199-0.199
				c-0.072-0.061-0.138-0.127-0.198-0.199c-0.072-0.061-0.138-0.127-0.199-0.198c-0.071-0.062-0.138-0.127-0.198-0.199
				c-0.072-0.061-0.138-0.127-0.199-0.199c-0.071-0.061-0.138-0.127-0.198-0.198c-0.072-0.062-0.138-0.127-0.199-0.199
				c-0.071-0.061-0.138-0.127-0.198-0.198c-0.072-0.062-0.138-0.127-0.199-0.199c-0.071-0.061-0.138-0.127-0.198-0.199
				c-0.072-0.061-0.138-0.127-0.199-0.198c-0.071-0.062-0.138-0.127-0.198-0.199c-0.072-0.061-0.138-0.127-0.199-0.199
				c-0.071-0.061-0.138-0.127-0.198-0.198c-0.072-0.062-0.138-0.127-0.199-0.199c-0.071-0.061-0.138-0.127-0.198-0.198
				c-0.072-0.062-0.138-0.128-0.199-0.199c-0.071-0.062-0.138-0.127-0.198-0.199c-0.072-0.061-0.138-0.127-0.199-0.198
				c-0.071-0.062-0.138-0.127-0.198-0.199c-0.072-0.061-0.138-0.127-0.199-0.199c-0.071-0.061-0.138-0.127-0.198-0.198
				c-0.072-0.062-0.138-0.127-0.199-0.199c-0.071-0.061-0.138-0.127-0.198-0.199c-0.072-0.061-0.138-0.127-0.199-0.198
				c-0.071-0.062-0.138-0.127-0.198-0.199c-0.072-0.061-0.138-0.127-0.199-0.198c-0.071-0.062-0.138-0.127-0.198-0.199
				c-0.072-0.061-0.138-0.127-0.199-0.199c-0.071-0.061-0.138-0.127-0.198-0.198c-0.072-0.062-0.138-0.127-0.199-0.199
				c-0.071-0.061-0.138-0.127-0.198-0.199c-0.072-0.061-0.138-0.127-0.199-0.198c-0.071-0.062-0.138-0.127-0.198-0.199
				c-0.072-0.061-0.138-0.127-0.199-0.198c-0.071-0.062-0.137-0.128-0.198-0.199c-0.072-0.062-0.138-0.127-0.199-0.199
				c-0.071-0.061-0.137-0.127-0.198-0.198c-0.072-0.062-0.138-0.127-0.199-0.199c-0.071-0.061-0.137-0.127-0.198-0.199
				c-0.072-0.061-0.138-0.127-0.199-0.198c-0.071-0.062-0.137-0.127-0.198-0.199c-0.072-0.061-0.138-0.127-0.199-0.199
				c-0.071-0.061-0.137-0.127-0.198-0.198c-0.072-0.062-0.138-0.127-0.198-0.199c-0.072-0.061-0.138-0.127-0.199-0.198
				c-0.072-0.062-0.138-0.127-0.198-0.199c-0.072-0.061-0.138-0.127-0.199-0.199c-0.071-0.061-0.138-0.127-0.198-0.198
				c-0.072-0.062-0.138-0.127-0.199-0.199c-0.071-0.061-0.138-0.127-0.198-0.199c-0.072-0.061-0.138-0.127-0.199-0.198
				c-0.071-0.062-0.138-0.127-0.198-0.199c-0.072-0.061-0.138-0.127-0.199-0.198c-0.071-0.062-0.138-0.128-0.198-0.199
				c-0.072-0.062-0.138-0.127-0.199-0.199c-0.071-0.061-0.138-0.127-0.198-0.198c-0.072-0.062-0.138-0.127-0.199-0.199
				c-0.071-0.061-0.138-0.127-0.198-0.199c-0.072-0.061-0.138-0.127-0.199-0.198c-0.071-0.062-0.138-0.127-0.198-0.199
				c-0.072-0.061-0.138-0.127-0.199-0.199c-0.071-0.061-0.138-0.127-0.198-0.198c-0.072-0.062-0.138-0.127-0.199-0.199
				c-0.071-0.061-0.138-0.127-0.198-0.198c-0.072-0.062-0.138-0.127-0.199-0.199c-0.071-0.061-0.138-0.127-0.198-0.199
				c-0.072-0.061-0.138-0.127-0.199-0.198c-0.071-0.062-0.138-0.127-0.198-0.199c-0.072-0.061-0.138-0.127-0.199-0.199
				c-0.071-0.061-0.138-0.127-0.198-0.198c-0.072-0.062-0.138-0.127-0.199-0.199c-0.071-0.061-0.138-0.127-0.198-0.198
				c-0.072-0.062-0.138-0.128-0.199-0.199c-0.071-0.062-0.138-0.127-0.198-0.199c-0.072-0.061-0.138-0.127-0.199-0.198
				c-0.071-0.062-0.138-0.127-0.198-0.199c-0.377-0.321-0.622-0.794-0.622-1.325v-6.104c0-0.963,0.786-1.75,1.748-1.75
				c2.167,0,4.281-0.348,6.24-0.997c0.611-0.209,1.31-0.052,1.781,0.42l3.847,3.849c4.946-2.537,8.999-6.577,11.517-11.526
				l-3.846-3.849c-0.488-0.49-0.628-1.171-0.437-1.784c0.646-1.958,0.997-4.057,0.997-6.243c0-0.962,0.787-1.749,1.748-1.749h6.117
				c0.53,0,1.002,0.245,1.324,0.623c0.07,0.061,0.137,0.127,0.197,0.198c0.072,0.062,0.139,0.127,0.199,0.199
				c0.072,0.061,0.138,0.127,0.199,0.198c0.071,0.062,0.137,0.128,0.199,0.199c0.07,0.062,0.137,0.127,0.197,0.199
				c0.072,0.061,0.139,0.127,0.199,0.198c0.072,0.062,0.138,0.127,0.199,0.199c0.071,0.061,0.137,0.127,0.198,0.199
				c0.071,0.061,0.138,0.127,0.198,0.198c0.072,0.062,0.139,0.127,0.199,0.199c0.072,0.061,0.138,0.127,0.199,0.199
				c0.071,0.061,0.137,0.127,0.198,0.198c0.071,0.062,0.138,0.127,0.198,0.199c0.072,0.061,0.139,0.127,0.199,0.198
				c0.072,0.062,0.138,0.127,0.199,0.199c0.071,0.062,0.137,0.127,0.198,0.199c0.071,0.061,0.138,0.127,0.198,0.198
				c0.072,0.062,0.139,0.127,0.199,0.199c0.072,0.061,0.138,0.127,0.199,0.199c0.071,0.061,0.137,0.127,0.198,0.198
				c0.071,0.062,0.138,0.127,0.198,0.199c0.072,0.061,0.139,0.127,0.199,0.198c0.072,0.062,0.138,0.128,0.199,0.199
				c0.071,0.062,0.137,0.127,0.198,0.199c0.071,0.061,0.138,0.127,0.198,0.198c0.072,0.062,0.139,0.127,0.199,0.199
				c0.072,0.061,0.138,0.127,0.199,0.199c0.071,0.061,0.137,0.127,0.198,0.198c0.071,0.062,0.138,0.127,0.198,0.199
				c0.072,0.061,0.139,0.127,0.199,0.199c0.072,0.061,0.138,0.127,0.199,0.198c0.07,0.062,0.137,0.127,0.198,0.199
				c0.071,0.061,0.138,0.127,0.198,0.198c0.072,0.062,0.139,0.127,0.199,0.199c0.072,0.062,0.138,0.127,0.199,0.199
				c0.07,0.061,0.137,0.127,0.198,0.198c0.071,0.062,0.138,0.127,0.198,0.199c0.072,0.061,0.139,0.127,0.199,0.199
				c0.071,0.061,0.137,0.127,0.199,0.198c0.07,0.062,0.137,0.127,0.198,0.199c0.071,0.061,0.138,0.127,0.198,0.198
				c0.072,0.062,0.139,0.128,0.199,0.199c0.071,0.062,0.137,0.127,0.199,0.199c0.07,0.061,0.137,0.127,0.198,0.198
				c0.071,0.062,0.138,0.127,0.198,0.199c0.072,0.061,0.138,0.127,0.199,0.199c0.071,0.061,0.137,0.127,0.199,0.198
				c0.07,0.062,0.137,0.127,0.197,0.199c0.072,0.061,0.139,0.127,0.199,0.199c0.072,0.061,0.138,0.127,0.199,0.198
				c0.071,0.062,0.137,0.127,0.199,0.199c0.07,0.061,0.137,0.127,0.197,0.198c0.072,0.062,0.139,0.128,0.199,0.199
				c0.072,0.062,0.138,0.127,0.199,0.199c0.071,0.061,0.137,0.127,0.199,0.198c0.07,0.062,0.137,0.127,0.197,0.199
				c0.072,0.061,0.139,0.127,0.199,0.199c0.072,0.061,0.138,0.127,0.199,0.198c0.071,0.062,0.137,0.127,0.198,0.199
				c0.071,0.061,0.138,0.127,0.198,0.199c0.072,0.061,0.139,0.127,0.199,0.198c0.072,0.062,0.138,0.127,0.199,0.199
				c0.071,0.061,0.137,0.127,0.198,0.198c0.071,0.062,0.138,0.127,0.198,0.199c0.072,0.061,0.139,0.127,0.199,0.199
				c0.072,0.061,0.138,0.127,0.199,0.198c0.071,0.062,0.137,0.127,0.198,0.199c0.071,0.061,0.138,0.127,0.198,0.199
				c0.072,0.061,0.139,0.127,0.199,0.198c0.072,0.062,0.138,0.127,0.199,0.199c0.071,0.061,0.137,0.127,0.198,0.198
				c0.071,0.062,0.138,0.128,0.198,0.199c0.072,0.062,0.139,0.127,0.199,0.199c0.072,0.061,0.138,0.127,0.199,0.198
				c0.071,0.062,0.137,0.127,0.198,0.199c0.071,0.061,0.138,0.127,0.198,0.199c0.072,0.061,0.139,0.127,0.199,0.198
				c0.072,0.062,0.138,0.127,0.199,0.199c0.071,0.061,0.137,0.127,0.198,0.199c0.071,0.061,0.138,0.127,0.198,0.198
				c0.072,0.062,0.139,0.127,0.199,0.199c0.072,0.061,0.138,0.127,0.199,0.198c0.07,0.062,0.137,0.127,0.198,0.199
				c0.071,0.061,0.138,0.127,0.198,0.199c0.072,0.061,0.139,0.127,0.199,0.198c0.072,0.062,0.138,0.127,0.199,0.199
				c0.07,0.061,0.137,0.127,0.198,0.199c0.071,0.061,0.138,0.127,0.198,0.198c0.072,0.062,0.139,0.127,0.199,0.199
				c0.071,0.061,0.137,0.127,0.199,0.198c0.07,0.062,0.137,0.128,0.198,0.199c0.071,0.062,0.138,0.127,0.198,0.199
				c0.072,0.061,0.139,0.127,0.199,0.198c0.071,0.062,0.137,0.127,0.199,0.199c0.07,0.061,0.137,0.127,0.198,0.199
				c0.071,0.061,0.138,0.127,0.198,0.198c0.055,0.047,0.104,0.1,0.152,0.152C69.908,37.907,70,36.465,70,35.001
				C70,15.672,54.342,0.002,35.025,0.002S0.051,15.672,0.051,35.001C0.051,54.331,15.709,70,35.025,70
				c1.447,0,2.873-0.09,4.275-0.261C39.255,69.697,39.209,69.655,39.168,69.607z"/>
			<path opacity="0.2" fill="#1E1E1C" d="M69.384,38.973c-0.062-0.072-0.128-0.139-0.198-0.199
				c-0.062-0.072-0.128-0.138-0.199-0.199c-0.061-0.071-0.127-0.138-0.199-0.198c-0.061-0.072-0.127-0.138-0.198-0.199
				c-0.062-0.071-0.128-0.138-0.198-0.199c-0.062-0.071-0.128-0.138-0.199-0.198c-0.061-0.072-0.127-0.138-0.199-0.199
				c-0.061-0.071-0.127-0.138-0.198-0.198c-0.062-0.072-0.128-0.139-0.198-0.199c-0.062-0.072-0.127-0.138-0.199-0.199
				c-0.061-0.071-0.127-0.138-0.199-0.198c-0.061-0.072-0.127-0.139-0.198-0.199c-0.062-0.072-0.128-0.138-0.198-0.199
				c-0.062-0.071-0.127-0.138-0.199-0.198c-0.061-0.072-0.127-0.138-0.199-0.199c-0.061-0.071-0.127-0.138-0.198-0.198
				c-0.062-0.072-0.127-0.139-0.198-0.199c-0.062-0.072-0.127-0.138-0.199-0.199c-0.061-0.071-0.127-0.138-0.199-0.198
				c-0.061-0.072-0.127-0.139-0.198-0.199c-0.062-0.072-0.127-0.138-0.198-0.199c-0.062-0.071-0.127-0.138-0.199-0.198
				c-0.061-0.072-0.127-0.138-0.199-0.199c-0.061-0.071-0.127-0.138-0.198-0.199c-0.062-0.071-0.127-0.138-0.198-0.198
				c-0.062-0.072-0.127-0.138-0.199-0.199c-0.061-0.071-0.127-0.138-0.199-0.198c-0.061-0.072-0.127-0.139-0.198-0.199
				c-0.062-0.072-0.127-0.138-0.198-0.199c-0.062-0.071-0.127-0.138-0.199-0.198c-0.061-0.072-0.127-0.139-0.199-0.199
				c-0.061-0.072-0.127-0.138-0.198-0.199c-0.062-0.071-0.127-0.138-0.198-0.198c-0.062-0.072-0.127-0.138-0.199-0.199
				c-0.061-0.071-0.127-0.138-0.199-0.198c-0.061-0.072-0.127-0.139-0.198-0.199c-0.062-0.072-0.127-0.138-0.198-0.199
				c-0.062-0.071-0.127-0.138-0.199-0.198c-0.061-0.072-0.127-0.139-0.199-0.199c-0.061-0.072-0.127-0.138-0.197-0.199
				c-0.062-0.071-0.128-0.138-0.199-0.198c-0.062-0.072-0.127-0.138-0.199-0.199c-0.061-0.071-0.127-0.138-0.199-0.199
				c-0.061-0.071-0.127-0.138-0.197-0.198c-0.062-0.072-0.128-0.138-0.199-0.199c-0.062-0.071-0.127-0.138-0.199-0.198
				c-0.061-0.072-0.127-0.139-0.199-0.199c-0.061-0.072-0.127-0.138-0.197-0.199c-0.062-0.071-0.128-0.138-0.199-0.198
				c-0.062-0.072-0.127-0.139-0.199-0.199c-0.061-0.072-0.127-0.138-0.198-0.199c-0.062-0.071-0.128-0.138-0.198-0.198
				c-0.062-0.072-0.128-0.138-0.199-0.199c-0.061-0.071-0.127-0.138-0.199-0.199c-0.061-0.071-0.127-0.138-0.198-0.198
				c-0.062-0.072-0.128-0.138-0.198-0.199c-0.062-0.071-0.128-0.138-0.199-0.198c-0.061-0.072-0.127-0.139-0.199-0.199
				c-0.061-0.072-0.127-0.138-0.198-0.199c-0.062-0.071-0.128-0.138-0.198-0.198c-0.062-0.072-0.127-0.138-0.199-0.199
				c-0.061-0.072-0.127-0.138-0.199-0.199c-0.061-0.071-0.127-0.138-0.198-0.198c-0.062-0.072-0.128-0.138-0.198-0.199
				c-0.062-0.071-0.127-0.138-0.199-0.198c-0.061-0.072-0.127-0.139-0.199-0.199c-0.061-0.072-0.127-0.138-0.198-0.199
				c-0.062-0.071-0.127-0.138-0.198-0.198c-0.062-0.072-0.127-0.139-0.199-0.199c-0.061-0.072-0.127-0.138-0.199-0.199
				c-0.061-0.071-0.127-0.138-0.198-0.198c-0.062-0.072-0.127-0.138-0.198-0.199c-0.062-0.071-0.127-0.138-0.199-0.199
				c-0.061-0.071-0.127-0.138-0.199-0.198c-0.061-0.072-0.127-0.138-0.198-0.199c-0.062-0.071-0.127-0.138-0.198-0.198
				c-0.062-0.072-0.127-0.139-0.199-0.199c-0.061-0.072-0.127-0.138-0.199-0.199c-0.061-0.071-0.127-0.138-0.198-0.198
				c-0.062-0.072-0.127-0.138-0.198-0.199c-0.062-0.072-0.127-0.138-0.199-0.199c-0.061-0.071-0.127-0.138-0.199-0.198
				c-0.061-0.072-0.127-0.138-0.198-0.199c-0.062-0.071-0.127-0.138-0.198-0.198c-0.062-0.072-0.127-0.139-0.199-0.199
				c-0.061-0.072-0.127-0.138-0.199-0.199c-0.061-0.071-0.127-0.138-0.198-0.198c-0.062-0.072-0.127-0.139-0.198-0.199
				c-0.062-0.072-0.127-0.138-0.199-0.199c-0.061-0.071-0.127-0.138-0.199-0.198c-0.061-0.072-0.127-0.138-0.197-0.199
				c-0.062-0.071-0.128-0.138-0.199-0.199c-0.062-0.071-0.127-0.138-0.199-0.198c-0.061-0.072-0.127-0.138-0.199-0.199
				c-0.061-0.071-0.127-0.138-0.197-0.198c-0.322-0.378-0.794-0.623-1.324-0.623h-6.117c-0.961,0-1.748,0.787-1.748,1.749
				c0,2.187-0.351,4.285-0.997,6.243c-0.191,0.613-0.052,1.294,0.437,1.784l3.846,3.849c-2.518,4.949-6.57,8.989-11.517,11.526
				l-3.847-3.849c-0.472-0.472-1.17-0.629-1.781-0.42c-1.959,0.649-4.073,0.997-6.24,0.997c-0.962,0-1.748,0.787-1.748,1.75v6.104
				c0,0.531,0.245,1.004,0.622,1.325c0.061,0.072,0.127,0.138,0.198,0.199c0.062,0.071,0.127,0.138,0.199,0.198
				c0.061,0.072,0.127,0.138,0.198,0.199c0.062,0.071,0.127,0.138,0.199,0.199c0.061,0.071,0.127,0.138,0.198,0.198
				c0.062,0.072,0.127,0.138,0.199,0.199c0.061,0.071,0.127,0.138,0.198,0.198c0.062,0.072,0.127,0.139,0.199,0.199
				c0.061,0.072,0.127,0.138,0.198,0.199c0.062,0.071,0.127,0.138,0.199,0.198c0.061,0.072,0.127,0.139,0.198,0.199
				c0.062,0.072,0.127,0.138,0.199,0.199c0.061,0.071,0.127,0.138,0.198,0.198c0.062,0.072,0.127,0.138,0.199,0.199
				c0.061,0.071,0.127,0.138,0.198,0.198c0.062,0.072,0.127,0.139,0.199,0.199c0.061,0.072,0.127,0.138,0.198,0.199
				c0.062,0.071,0.127,0.138,0.199,0.198c0.061,0.072,0.127,0.139,0.198,0.199c0.062,0.072,0.127,0.138,0.199,0.199
				c0.061,0.071,0.127,0.138,0.198,0.198c0.062,0.072,0.127,0.138,0.199,0.199c0.061,0.071,0.127,0.138,0.198,0.199
				c0.062,0.071,0.127,0.138,0.199,0.198c0.061,0.072,0.127,0.138,0.198,0.199c0.062,0.071,0.127,0.138,0.199,0.198
				c0.061,0.072,0.127,0.139,0.198,0.199c0.062,0.072,0.127,0.138,0.199,0.199c0.061,0.071,0.127,0.138,0.198,0.198
				c0.062,0.072,0.127,0.139,0.199,0.199c0.061,0.072,0.126,0.138,0.198,0.199c0.062,0.071,0.127,0.138,0.199,0.198
				c0.061,0.072,0.126,0.138,0.198,0.199c0.062,0.071,0.127,0.138,0.198,0.198c0.062,0.072,0.127,0.139,0.199,0.199
				c0.062,0.072,0.127,0.138,0.198,0.199c0.062,0.071,0.127,0.138,0.199,0.198c0.062,0.072,0.127,0.139,0.198,0.199
				c0.062,0.072,0.127,0.138,0.199,0.199c0.062,0.071,0.127,0.138,0.198,0.198c0.062,0.072,0.127,0.138,0.199,0.199
				c0.062,0.071,0.127,0.138,0.198,0.199c0.062,0.071,0.127,0.138,0.199,0.198c0.061,0.072,0.127,0.138,0.198,0.199
				c0.062,0.071,0.127,0.138,0.199,0.198c0.061,0.072,0.127,0.139,0.198,0.199c0.062,0.072,0.127,0.138,0.199,0.199
				c0.061,0.071,0.127,0.138,0.198,0.198c0.062,0.072,0.127,0.139,0.199,0.199c0.061,0.072,0.127,0.138,0.198,0.199
				c0.062,0.071,0.127,0.138,0.199,0.198c0.061,0.072,0.127,0.138,0.198,0.199c0.062,0.071,0.127,0.138,0.199,0.198
				c0.061,0.072,0.127,0.139,0.198,0.199c0.062,0.072,0.127,0.138,0.199,0.199c0.061,0.071,0.127,0.138,0.198,0.198
				c0.062,0.072,0.127,0.139,0.199,0.199c0.061,0.072,0.127,0.138,0.198,0.199c0.062,0.071,0.127,0.138,0.199,0.198
				c0.061,0.072,0.127,0.138,0.198,0.199c0.062,0.071,0.127,0.138,0.199,0.199c0.061,0.071,0.127,0.138,0.198,0.198
				c0.062,0.072,0.127,0.138,0.199,0.199c0.061,0.071,0.127,0.138,0.198,0.198c0.062,0.072,0.127,0.139,0.199,0.199
				c0.061,0.072,0.127,0.138,0.198,0.199c0.062,0.071,0.127,0.138,0.199,0.198c0.061,0.072,0.127,0.139,0.198,0.199
				c0.062,0.072,0.127,0.138,0.199,0.199c0.061,0.071,0.127,0.138,0.198,0.198c0.062,0.072,0.127,0.138,0.199,0.199
				c0.061,0.071,0.127,0.138,0.198,0.198c0.062,0.072,0.127,0.139,0.199,0.199c0.061,0.072,0.127,0.138,0.198,0.199
				c0.062,0.071,0.127,0.138,0.199,0.198c0.061,0.072,0.126,0.139,0.198,0.199c0.061,0.072,0.127,0.138,0.199,0.199
				c0.061,0.071,0.127,0.138,0.197,0.198c0.062,0.072,0.127,0.138,0.199,0.199c0.062,0.071,0.127,0.138,0.199,0.199
				c0.061,0.071,0.127,0.138,0.199,0.198c0.061,0.072,0.126,0.138,0.197,0.199c0.062,0.071,0.127,0.138,0.199,0.198
				c0.062,0.072,0.127,0.139,0.199,0.199c0.061,0.072,0.127,0.138,0.198,0.199c0.062,0.071,0.127,0.138,0.198,0.198
				c0.062,0.072,0.127,0.139,0.199,0.199c0.061,0.072,0.127,0.138,0.199,0.199c0.061,0.071,0.127,0.138,0.198,0.198
				c0.062,0.072,0.127,0.138,0.198,0.199c0.062,0.071,0.127,0.138,0.199,0.199c0.061,0.071,0.127,0.138,0.199,0.198
				c0.061,0.072,0.127,0.138,0.198,0.199c0.062,0.071,0.127,0.138,0.198,0.198c0.062,0.072,0.127,0.139,0.199,0.199
				c0.061,0.072,0.127,0.138,0.199,0.199c0.041,0.048,0.087,0.09,0.133,0.132c15.883-1.937,28.479-14.527,30.434-30.416
				c-0.049-0.053-0.098-0.105-0.152-0.152C69.521,39.1,69.455,39.033,69.384,38.973z"/>
		</g>
		<g>
			<path fill="#FCFBFB" d="M40.558,29.036c-0.488-0.49-0.628-1.172-0.437-1.785c0.646-1.957,0.996-4.057,0.996-6.243
				c0-0.961,0.787-1.749,1.748-1.749h6.117c0.961,0,1.748,0.788,1.748,1.749c0,16.425-13.3,29.733-29.713,29.733
				c-0.961,0-1.748-0.786-1.748-1.749v-6.104c0-0.962,0.787-1.749,1.748-1.749c2.167,0,4.282-0.349,6.24-0.998
				c0.611-0.208,1.311-0.051,1.782,0.42l3.846,3.849c4.946-2.536,8.999-6.576,11.517-11.526L40.558,29.036z"/>
		</g>
	</g>
	
		<radialGradient id="SVGID_1_" cx="17519.168" cy="23863.457" r="527.9218" gradientTransform="matrix(0.0663 0 0 0.0663 -1126.4683 -1547.1072)" gradientUnits="userSpaceOnUse">
		<stop  offset="0" style="stop-color:#FFFFFF;stop-opacity:0.1"/>
		<stop  offset="1" style="stop-color:#FFFFFF;stop-opacity:0"/>
	</radialGradient>
	<path fill-rule="evenodd" clip-rule="evenodd" fill="url(#SVGID_1_)" d="M34.998,0C15.67,0,0,15.67,0,35s15.67,35,34.998,35
		C54.331,70,70,54.33,70,35S54.331,0,34.998,0z"/>
</g>
</svg>
