<?xml version="1.0" encoding="utf-8"?>
<!-- Generator: Adobe Illustrator 16.0.4, SVG Export Plug-In . SVG Version: 6.00 Build 0)  -->
<!DOCTYPE svg PUBLIC "-//W3C//DTD SVG 1.1//EN" "http://www.w3.org/Graphics/SVG/1.1/DTD/svg11.dtd">
<svg version="1.1" id="Capa_1" xmlns="http://www.w3.org/2000/svg" xmlns:xlink="http://www.w3.org/1999/xlink" x="0px" y="0px"
	 width="70px" height="70px" viewBox="0 0 70 70" enable-background="new 0 0 70 70" xml:space="preserve">
<rect x="-350.667" y="-58.183" fill="#328ACA" width="68.074" height="58.775"/>
<rect x="-350.667" y="0.182" opacity="0.2" fill="#263239" width="68.074" height="58.775"/>
<rect x="-350.667" y="-116.958" opacity="0.2" fill="#FFFFFF" width="68.074" height="58.775"/>
<g>
	<g>
		<g>
			<ellipse fill-rule="evenodd" clip-rule="evenodd" fill="#328ACA" cx="-184" cy="-112.934" rx="34.974" ry="34.998"/>
		</g>
		<path opacity="0.2" fill="#263239" d="M-178.768-128.594l-0.221,0.201h-3.213l-6.841,3.664l0.704,2.774l-0.066,0.256l5.724,5.736
			v18.382l-0.183,0.319l15.257,15.266l0.572-0.322c7.271-4.042,12.958-10.596,15.871-18.498v-0.135L-178.768-128.594z"/>
		<g>
			<path fill="#FBFBFB" d="M-182.869-124.648h-0.095l-5.444,2.942l-0.82-3.23l6.841-3.664h3.614v31.332h-4.096V-124.648z"/>
		</g>
		<g>
			<g opacity="0.2">
				<path fill-rule="evenodd" clip-rule="evenodd" fill="#263239" d="M-183.976-78.333c-19.253,0-34.869-15.566-34.972-34.807
					c0,0.069-0.003,0.138-0.003,0.206c0,19.33,15.658,35,34.974,35c19.318,0,34.977-15.67,34.977-35
					c0-0.066-0.003-0.132-0.003-0.198C-149.11-93.896-164.726-78.333-183.976-78.333z"/>
			</g>
			<g opacity="0.2">
				<path fill-rule="evenodd" clip-rule="evenodd" fill="#FFFFFF" d="M-184.026-147.536c-19.252,0-34.868,15.566-34.971,34.807
					c-0.002-0.069-0.003-0.137-0.003-0.206c0-19.33,15.658-35,34.974-35c19.318,0,34.977,15.669,34.977,35
					c0,0.065-0.003,0.131-0.003,0.198C-149.16-131.973-164.775-147.536-184.026-147.536z"/>
			</g>
		</g>
	</g>
	
		<radialGradient id="SVGID_1_" cx="-552.2593" cy="-62.0728" r="71.0176" gradientTransform="matrix(0.4928 0 0 0.4908 88.1726 -82.4688)" gradientUnits="userSpaceOnUse">
		<stop  offset="0" style="stop-color:#FFFFFF;stop-opacity:0.1"/>
		<stop  offset="1" style="stop-color:#FFFFFF;stop-opacity:0"/>
	</radialGradient>
	<path fill-rule="evenodd" clip-rule="evenodd" fill="url(#SVGID_1_)" d="M-184.002-147.79c-19.329,0-34.998,15.606-34.998,34.855
		c0,19.25,15.669,34.855,34.998,34.855c19.332,0,35.002-15.605,35.002-34.855C-149-132.184-164.67-147.79-184.002-147.79z"/>
</g>
<g>
	
		<radialGradient id="SVGID_2_" cx="-229.0928" cy="207.2344" r="71.312" gradientTransform="matrix(0.4908 0 0 0.4908 147.4387 -66.7102)" gradientUnits="userSpaceOnUse">
		<stop  offset="0" style="stop-color:#FFFFFF;stop-opacity:0.1"/>
		<stop  offset="1" style="stop-color:#FFFFFF;stop-opacity:0"/>
	</radialGradient>
	<path fill-rule="evenodd" clip-rule="evenodd" fill="url(#SVGID_2_)" d="M34.999,0C15.671,0,0,15.671,0,35.001S15.671,70,34.999,70
		C54.332,70,70,54.331,70,35.001S54.332,0,34.999,0z"/>
	<g>
		<g>
			<g>
				<ellipse fill-rule="evenodd" clip-rule="evenodd" fill="#328ACA" cx="35.024" cy="35.001" rx="34.83" ry="34.999"/>
			</g>
			<g opacity="0.2">
				<path fill-rule="evenodd" clip-rule="evenodd" fill="#263239" d="M35.025,69.603c-19.173,0-34.725-15.567-34.829-34.809
					c0,0.068-0.002,0.137-0.002,0.207C0.194,54.331,15.789,70,35.024,70c19.237,0,34.83-15.669,34.83-34.999
					c0-0.067-0.003-0.133-0.003-0.199C69.747,54.039,54.195,69.603,35.025,69.603z"/>
			</g>
			<g opacity="0.2">
				<path fill-rule="evenodd" clip-rule="evenodd" fill="#FFFFFF" d="M34.975,0.398c-19.172,0-34.726,15.566-34.826,34.806
					c-0.002-0.068-0.003-0.137-0.003-0.206C0.146,15.67,15.739,0,34.975,0c19.237,0,34.832,15.67,34.832,34.998
					c0,0.066-0.003,0.133-0.003,0.199C69.697,15.96,54.146,0.398,34.975,0.398z"/>
			</g>
		</g>
		<path opacity="0.2" fill="#263239" d="M41.86,22.115c-1.531-1.588-3.83-2.646-7.019-2.646c-3.55,0-6.581,1.333-8.714,3.141
			l1.126,2.507l0.003,0.246l10.281,10.319c-1.871,2.602-4.797,5.564-8.899,9.488l-3.269,3.188v2.231l-0.198,0.14l18.207,18.255
			c11.016-2.727,19.969-10.713,24.063-21.161C67.425,47.805,41.929,22.181,41.86,22.115z"/>
		<g>
			<path fill="#FFFFFF" d="M25.172,50.729V48.16l3.269-3.188c7.863-7.521,11.415-11.519,11.462-16.182
				c0-3.142-1.517-6.045-6.11-6.045c-2.795,0-5.116,1.427-6.535,2.617l-1.328-2.951c2.133-1.807,5.163-3.14,8.716-3.14
				c6.632,0,9.428,4.567,9.428,8.993c0,5.712-4.122,10.33-10.61,16.611l-2.465,2.284v0.095h13.831v3.475H25.172z"/>
		</g>
	</g>
</g>
<g>
	<g>
		<g>
			<g>
				<ellipse fill-rule="evenodd" clip-rule="evenodd" fill="#328ACA" cx="12.731" cy="-116.956" rx="34.975" ry="34.998"/>
			</g>
			<g opacity="0.2">
				<path fill-rule="evenodd" clip-rule="evenodd" fill="#263239" d="M12.731-82.355c-19.253,0-34.869-15.567-34.973-34.807
					c0,0.068-0.003,0.138-0.003,0.206c0,19.33,15.659,34.998,34.976,34.998c19.316,0,34.975-15.668,34.975-34.998
					c0-0.066-0.003-0.132-0.003-0.199C47.596-97.918,31.98-82.355,12.731-82.355z"/>
			</g>
			<g opacity="0.2">
				<path fill-rule="evenodd" clip-rule="evenodd" fill="#FFFFFF" d="M12.682-151.56c-19.253,0-34.87,15.566-34.973,34.809
					c0-0.069-0.003-0.138-0.003-0.208c0-19.329,15.659-34.999,34.975-34.999c19.317,0,34.976,15.67,34.976,34.999
					c0,0.067-0.003,0.133-0.003,0.199C47.547-135.998,31.931-151.56,12.682-151.56z"/>
			</g>
		</g>
		<path opacity="0.2" fill="#263239" d="M19.242-130.025c-1.416-1.43-3.622-2.385-6.711-2.385c-3.257,0-6.329,1.165-7.911,2.328
			l0.946,2.633l-0.074,0.15l7.464,7.486c-0.878,0.267-1.801,0.4-2.659,0.4H8.018v2.692l-0.199,0.181l9.409,9.42
			c-0.967,1.502-2.805,2.704-5.953,2.704c-2.838,0-5.54-1.163-6.702-1.91l-1.011,2.868l-0.305,0.101l19.809,19.846l0.081-0.025
			c0.001,0,0.001-0.001,0.003-0.001l0.039-0.012v-0.001c10.066-3.152,18.175-10.732,22.047-20.464
			C45.183-104.067,19.312-129.961,19.242-130.025z"/>
		<g>
			<path fill="#FFFFFF" d="M4.374-106.524c1.164,0.746,3.864,1.911,6.702,1.911c5.263,0,6.89-3.353,6.845-5.87
				c-0.048-4.238-3.865-6.056-7.821-6.056h-2.28v-3.073h2.28c2.979,0,6.75-1.538,6.75-5.125c0-2.421-1.537-4.564-5.307-4.564
				c-2.422,0-4.748,1.071-6.051,2.003L4.42-130.28c1.582-1.165,4.654-2.328,7.913-2.328c5.958,0,8.659,3.54,8.659,7.219
				c0,3.122-1.863,5.777-5.587,7.128v0.096c3.724,0.744,6.75,3.537,6.75,7.775c0,4.847-3.771,9.084-11.031,9.084
				c-3.398,0-6.377-1.07-7.867-2.05L4.374-106.524z"/>
		</g>
	</g>
	
		<radialGradient id="SVGID_3_" cx="-228.0762" cy="-135.8477" r="71.0171" gradientTransform="matrix(0.4928 0 0 0.4928 125.1116 -50.0078)" gradientUnits="userSpaceOnUse">
		<stop  offset="0" style="stop-color:#FFFFFF;stop-opacity:0.1"/>
		<stop  offset="1" style="stop-color:#FFFFFF;stop-opacity:0"/>
	</radialGradient>
	<circle fill-rule="evenodd" clip-rule="evenodd" fill="url(#SVGID_3_)" cx="12.705" cy="-116.958" r="35"/>
</g>
<g>
	<g>
		<g>
			<g>
				<ellipse fill-rule="evenodd" clip-rule="evenodd" fill="#328ACA" cx="101.18" cy="-118.51" rx="34.975" ry="34.999"/>
			</g>
			<g opacity="0.2">
				<path fill-rule="evenodd" clip-rule="evenodd" fill="#FFFFFF" d="M101.129-153.112c-19.252,0-34.869,15.566-34.973,34.808
					c0-0.07-0.002-0.139-0.002-0.208c0-19.328,15.658-34.998,34.975-34.998s34.975,15.67,34.975,34.998
					c0,0.066-0.002,0.132-0.002,0.199C135.994-137.549,120.379-153.112,101.129-153.112z"/>
			</g>
			<g opacity="0.2">
				<path fill-rule="evenodd" clip-rule="evenodd" fill="#263239" d="M101.18-83.908c-19.252,0-34.869-15.565-34.973-34.809
					c0,0.068-0.002,0.139-0.002,0.207c0,19.329,15.658,34.999,34.975,34.999c19.315,0,34.975-15.67,34.975-34.999
					c0-0.067-0.002-0.133-0.002-0.199C136.044-99.471,120.43-83.908,101.18-83.908z"/>
			</g>
		</g>
		<path opacity="0.2" fill="#263239" d="M134.553-108.009l-26.267-26.28l-0.265,0.199h-4.145l-14.07,20.149v2.336l-0.199,0.279
			l25.064,25.114l0.14-0.059h0.001c0.004-0.003,0.008-0.004,0.013-0.006l0.084-0.035l0.001-0.001
			c9.283-3.971,16.5-11.844,19.596-21.556v-0.002L134.553-108.009z"/>
		<g>
			<path fill="#FFFFFF" d="M104.26-102.732v-8.593H89.607v-2.814l14.07-20.149h4.608v19.615h4.415v3.349h-4.415v8.593H104.26z
				 M104.26-114.674v-10.535c0-1.652,0.049-3.303,0.146-4.953h-0.146c-0.971,1.847-1.746,3.204-2.62,4.659l-7.715,10.731v0.098
				H104.26z"/>
		</g>
	</g>
	
		<radialGradient id="SVGID_4_" cx="-41.4238" cy="-135.8994" r="71.3125" gradientTransform="matrix(0.4908 0 0 0.4908 121.4851 -51.8125)" gradientUnits="userSpaceOnUse">
		<stop  offset="0" style="stop-color:#FFFFFF;stop-opacity:0.1"/>
		<stop  offset="1" style="stop-color:#FFFFFF;stop-opacity:0"/>
	</radialGradient>
	<path fill-rule="evenodd" clip-rule="evenodd" fill="url(#SVGID_4_)" d="M101.152-153.511c-19.328,0-34.998,15.671-34.998,35.001
		c0,19.329,15.67,34.999,34.998,34.999c19.332,0,35.002-15.67,35.002-34.999C136.154-137.84,120.484-153.511,101.152-153.511z"/>
</g>
<g>
	<g>
		<g>
			<g>
				<ellipse fill-rule="evenodd" clip-rule="evenodd" fill="#328ACA" cx="187.825" cy="-113.139" rx="34.976" ry="35"/>
			</g>
			<g opacity="0.2">
				<path fill-rule="evenodd" clip-rule="evenodd" fill="#263239" d="M187.825-78.538c-19.253,0-34.869-15.566-34.974-34.808
					c0,0.069-0.002,0.138-0.002,0.206c0,19.33,15.659,35,34.976,35s34.976-15.67,34.976-35c0-0.065-0.004-0.133-0.004-0.199
					C222.689-94.1,207.074-78.538,187.825-78.538z"/>
			</g>
			<g opacity="0.2">
				<path fill-rule="evenodd" clip-rule="evenodd" fill="#FFFFFF" d="M187.775-147.742c-19.252,0-34.869,15.565-34.973,34.808
					c0-0.069-0.002-0.138-0.002-0.206c0-19.33,15.658-34.999,34.974-34.999c19.317,0,34.976,15.669,34.976,34.999
					c0,0.065-0.002,0.132-0.002,0.197C222.641-132.18,207.025-147.742,187.775-147.742z"/>
			</g>
		</g>
		<path fill="none" d="M200.242-80.422c-0.066-0.066-0.136-0.129-0.199-0.199c-0.065-0.065-0.135-0.13-0.199-0.198
			c-0.064-0.066-0.135-0.131-0.198-0.199c-0.065-0.066-0.136-0.129-0.198-0.197c-0.066-0.067-0.136-0.132-0.199-0.2
			c-0.065-0.066-0.135-0.131-0.198-0.199c-0.065-0.066-0.136-0.13-0.198-0.198c-0.066-0.066-0.136-0.131-0.199-0.199
			c-0.065-0.066-0.137-0.129-0.199-0.199c-0.064-0.065-0.135-0.13-0.198-0.199c-0.065-0.065-0.136-0.13-0.198-0.198
			c-0.066-0.066-0.137-0.129-0.199-0.199c-0.066-0.066-0.136-0.13-0.198-0.198c-0.066-0.066-0.136-0.131-0.198-0.199
			c-0.066-0.066-0.137-0.129-0.2-0.199c-0.065-0.065-0.136-0.13-0.198-0.198c-0.066-0.066-0.136-0.131-0.199-0.199
			c-0.065-0.066-0.135-0.13-0.198-0.198c-0.065-0.066-0.136-0.131-0.198-0.199c-0.066-0.066-0.136-0.129-0.199-0.199
			c-0.065-0.066-0.135-0.13-0.199-0.198c-0.064-0.066-0.135-0.131-0.198-0.199c-0.065-0.066-0.136-0.129-0.198-0.199
			c-0.066-0.065-0.137-0.13-0.199-0.198c-0.066-0.066-0.136-0.129-0.198-0.199c-0.066-0.066-0.136-0.129-0.198-0.199
			c-0.066-0.065-0.137-0.13-0.199-0.198c-0.066-0.066-0.137-0.131-0.199-0.199c-0.066-0.066-0.136-0.13-0.199-0.198
			c-0.064-0.066-0.135-0.131-0.198-0.199c-0.065-0.066-0.136-0.131-0.198-0.199c-0.066-0.066-0.136-0.13-0.199-0.198
			c-0.065-0.066-0.135-0.131-0.199-0.199c-0.064-0.066-0.135-0.129-0.198-0.199c-0.065-0.065-0.136-0.13-0.198-0.198
			c-0.066-0.066-0.136-0.131-0.199-0.199c-0.065-0.066-0.136-0.129-0.198-0.199c-0.066-0.065-0.136-0.13-0.198-0.198
			c-0.066-0.066-0.137-0.131-0.199-0.199c-0.066-0.065-0.137-0.13-0.199-0.198c-0.066-0.066-0.135-0.131-0.198-0.199
			c-0.065-0.066-0.136-0.129-0.198-0.199c-0.066-0.065-0.137-0.13-0.199-0.198c-0.066-0.066-0.136-0.131-0.199-0.199
			c-0.065-0.066-0.135-0.129-0.199-0.197c-0.064-0.067-0.135-0.132-0.198-0.2c-0.065-0.066-0.136-0.131-0.198-0.199
			c-0.066-0.066-0.136-0.129-0.199-0.197c-0.065-0.067-0.135-0.132-0.198-0.2c-0.065-0.066-0.136-0.129-0.198-0.199
			c-0.066-0.065-0.137-0.13-0.199-0.198c-0.066-0.066-0.137-0.131-0.199-0.199c-0.065-0.066-0.135-0.129-0.198-0.197
			c-0.065-0.067-0.136-0.132-0.198-0.2c-0.066-0.066-0.137-0.131-0.199-0.199c-0.066-0.066-0.136-0.129-0.198-0.199
			c-0.066-0.065-0.136-0.13-0.2-0.198c-0.064-0.066-0.135-0.131-0.198-0.199c-0.065-0.066-0.136-0.129-0.198-0.197
			c-0.066-0.067-0.136-0.132-0.199-0.2c-0.065-0.066-0.135-0.129-0.198-0.199c-0.065-0.066-0.136-0.13-0.198-0.198
			c-0.066-0.066-0.136-0.131-0.199-0.199c-0.065-0.066-0.135-0.129-0.199-0.199c-0.064-0.065-0.135-0.13-0.198-0.198
			c-0.065-0.066-0.136-0.129-0.198-0.199c-0.066-0.066-0.137-0.129-0.199-0.197c-0.066-0.067-0.136-0.132-0.198-0.2
			c-0.066-0.066-0.136-0.131-0.198-0.199c-0.066-0.066-0.137-0.129-0.199-0.197c-0.066-0.067-0.137-0.132-0.199-0.2
			c-0.066-0.066-0.136-0.131-0.199-0.199c-0.064-0.066-0.135-0.13-0.198-0.198c-0.065-0.066-0.136-0.131-0.198-0.199
			c-0.066-0.066-0.136-0.129-0.199-0.197c-0.065-0.067-0.135-0.132-0.199-0.2c-0.064-0.066-0.135-0.131-0.198-0.199
			c-0.065-0.066-0.136-0.129-0.198-0.197c-0.066-0.067-0.137-0.132-0.199-0.2c-0.066-0.066-0.136-0.129-0.198-0.199
			c-0.066-0.065-0.136-0.129-0.198-0.197c-0.066-0.067-0.137-0.132-0.199-0.2c-0.066-0.066-0.137-0.129-0.199-0.199
			c-0.066-0.065-0.135-0.13-0.199-0.198c-0.064-0.066-0.135-0.131-0.198-0.199c-0.065-0.066-0.136-0.129-0.198-0.197
			c-0.066-0.068-0.136-0.132-0.199-0.2c-0.065-0.066-0.135-0.131-0.199-0.199c-0.064-0.066-0.135-0.129-0.198-0.197
			c-0.065-0.067-0.136-0.132-0.198-0.2c-0.066-0.066-0.136-0.129-0.199-0.197c-0.065-0.067-0.136-0.131-0.198-0.199
			c-0.065-0.067-0.136-0.132-0.198-0.2c-0.066-0.066-0.137-0.129-0.199-0.199c-0.066-0.065-0.137-0.13-0.199-0.198
			c-0.065-0.066-0.135-0.131-0.198-0.199c-0.065-0.066-0.136-0.129-0.198-0.199c-0.066-0.065-0.137-0.13-0.199-0.198
			c-1.457-1.48-2.301-3.438-2.521-5.884h3.73c0.01,0.068,0.023,0.132,0.033,0.199h0.166c0.01,0.068,0.022,0.131,0.033,0.197h0.165
			c0.009,0.068,0.022,0.133,0.034,0.2h0.164c0.01,0.068,0.024,0.132,0.034,0.199h0.165c0.01,0.068,0.023,0.131,0.033,0.198h0.166
			c0.009,0.068,0.023,0.132,0.033,0.199h0.165c0.009,0.068,0.023,0.132,0.034,0.199h0.164c0.01,0.066,0.023,0.131,0.035,0.198h0.164
			c0.01,0.068,0.023,0.132,0.034,0.199h0.165c0.01,0.068,0.023,0.131,0.033,0.197h0.166c0.009,0.068,0.022,0.133,0.033,0.2h0.165
			c0.009,0.068,0.022,0.132,0.033,0.199h0.165c0.01,0.068,0.023,0.131,0.033,0.197h0.166c0.01,0.068,0.022,0.133,0.033,0.2h0.165
			c0.009,0.068,0.022,0.131,0.034,0.197h0.164c0.01,0.068,0.023,0.133,0.034,0.2h0.165c0.01,0.068,0.023,0.132,0.033,0.199h0.166
			c0.009,0.068,0.023,0.131,0.033,0.197h0.165c0.009,0.07,0.023,0.133,0.033,0.2h0.165c0.01,0.068,0.023,0.132,0.033,0.199h0.166
			c0.01,0.068,0.023,0.131,0.033,0.199h0.166c0.009,0.066,0.023,0.131,0.033,0.198h0.164c0.011,0.068,0.024,0.132,0.035,0.199h0.165
			c0.009,0.068,0.022,0.131,0.033,0.197h0.165c0.01,0.068,0.023,0.133,0.033,0.2h0.166c0.009,0.068,0.022,0.131,0.033,0.199h0.165
			c0.008,0.057,0.02,0.111,0.028,0.168c0.244,0.021,0.493,0.035,0.752,0.035c1.329,0,2.447-0.333,3.362-0.991l-0.206-0.053
			l0.014-0.144l-0.213-0.056l0.015-0.144l-0.214-0.054l0.016-0.145l-0.214-0.056l0.015-0.144l-0.213-0.056l0.014-0.144l-0.213-0.055
			l0.014-0.144l-0.213-0.056l0.016-0.144l-0.214-0.054l0.015-0.146l-0.213-0.055l0.014-0.144l-0.213-0.056l0.015-0.144l-0.213-0.054
			l0.015-0.145l-0.214-0.056l0.015-0.144l-0.213-0.056l0.014-0.144l-0.213-0.054l0.015-0.145l-0.214-0.056l0.016-0.144l-0.214-0.054
			l0.015-0.146l-0.213-0.055l0.015-0.144l-0.214-0.056l0.014-0.144l-0.213-0.054l0.016-0.145l-0.213-0.056l0.014-0.144l-0.213-0.056
			l0.014-0.144l-0.213-0.054l0.015-0.146l-0.213-0.055l0.015-0.144l-0.213-0.056l0.014-0.144l-0.213-0.054l0.014-0.145l-0.213-0.056
			l0.015-0.144l-0.214-0.054l0.016-0.146l-0.214-0.055l0.015-0.144l-0.213-0.056l0.015-0.144l-0.214-0.054l0.016-0.146l-0.215-0.055
			l0.016-0.144l-0.213-0.054l0.014-0.146l-0.213-0.054l0.014-0.145l-0.213-0.056l0.015-0.144l-0.213-0.054l0.015-0.146l-0.213-0.054
			l0.014-0.145l-0.213-0.056l0.014-0.144l-0.213-0.056l0.015-0.144l-0.213-0.055l0.015-0.144l-0.214-0.056l0.015-0.144l-0.213-0.054
			l0.015-0.145l-0.214-0.056l0.016-0.144l-0.214-0.056l0.015-0.144l-0.213-0.054l0.014-0.145l-0.213-0.056l0.015-0.144l-0.214-0.054
			l0.015-0.146l-0.213-0.054l0.015-0.145l-0.213-0.056l0.014-0.144l-0.213-0.054l0.014-0.146l-0.213-0.055l0.016-0.144l-0.214-0.056
			l0.015-0.144l-0.213-0.054l0.014-0.145l-0.213-0.056l0.015-0.144l-0.214-0.056l0.016-0.144l-0.214-0.054l0.015-0.145l-0.213-0.056
			l0.014-0.144l-0.213-0.054l0.015-0.145l-0.214-0.055l0.016-0.145l-0.214-0.056l0.015-0.144l-0.213-0.054l1.576-15.486h15.902
			v0.197h0.198v0.2h0.2v0.197h0.198v0.199h0.198v0.2h0.199v0.199h0.198v0.198h0.198v0.199h0.199v0.197h0.199v0.2h0.198v0.199h0.198
			v0.197h0.199v0.2h0.198v0.199h0.198v0.197h0.199v0.2h0.199v0.197h0.199v0.2h0.198v0.199h0.198v0.197h0.199v0.2h0.199v0.199h0.198
			v0.197h0.198v0.2h0.199v0.199h0.198v0.197H202v0.2h0.199v0.197h0.199v0.2h0.198v0.199h0.199v0.197h0.198v0.2h0.199v0.197h0.199
			v0.199h0.198v0.2h0.198v0.197h0.199v0.199h0.198v0.2h0.198v0.197h0.199v0.2h0.199v0.199h0.198v0.197h0.198v0.2h0.199v0.197h0.199
			v0.199h0.199v0.2h0.198v0.197h0.198v0.199h0.199v0.2h0.198v0.197h0.198v0.2h0.199v0.199h0.199v0.197h0.198v0.2h0.198v0.199h0.199
			v0.197h0.198v0.2h0.198v0.197h0.199v0.199h0.199v0.2h0.199v0.197h0.198v0.2h0.198v0.199h0.199v0.197h0.199v0.2h0.198v0.199h0.198
			v0.197h0.199v0.2h0.198v0.197h0.198v0.199h0.199v0.2h0.199v0.197h0.198v0.2h0.199v0.197h0.198v0.199h0.199v0.2h0.199v0.197h0.198
			v0.199h0.198v0.2h0.199v0.199h0.198v0.197h0.198v0.2h0.199v0.197h0.199v0.2h0.198v0.199h0.198v0.197h0.199v0.2h0.199v0.197h0.199
			v0.199h0.198v0.2h0.198v0.197h0.199v0.199h0.198v0.2h0.198v0.197h0.199v0.2h0.199v0.199h0.198v0.197h0.198v0.2h0.199v0.197h0.198
			v0.199h0.2v0.2h0.197v0.197h0.199v0.199h0.199v0.2h0.198v0.197h0.198v0.2h0.199v0.197h0.199v0.199h0.198v0.2h0.198v0.197h0.199
			v0.199h0.198v0.2h0.198v0.197h0.199v0.199h0.199v0.198h0.199v0.199h0.198v0.2h0.198v0.197h0.199v0.199h0.199v0.2h0.198v0.199
			h0.198v0.197h0.199v0.2h0.198v0.197h0.198v0.199h0.07c0.816-2.966,1.256-6.088,1.256-9.313c0-19.329-15.659-34.999-34.976-34.999
			s-34.976,15.67-34.976,34.999c0,19.33,15.659,35,34.976,35c4.376,0,8.562-0.808,12.425-2.275
			C200.246-80.417,200.244-80.419,200.242-80.422z"/>
		<path opacity="0.2" fill="#263239" d="M196.635-128.881l-0.033,0.199h-15.67l-1.543,15.151l-0.232,0.135l12.032,12.049
			c-0.896,0.614-1.981,0.927-3.265,0.927c-0.235,0-0.461-0.014-0.683-0.032v-0.077l-5.463-5.465l-0.123,0.2h-3.409
			c0.221,2.446,1.064,4.403,2.521,5.884c0.062,0.068,19.408,19.422,19.475,19.488c0.002,0.003,0.004,0.005,0.008,0.008
			c10.289-3.914,18.252-12.549,21.252-23.26h0.002l0.072-0.249L196.635-128.881z"/>
		<g>
			<path fill="#FBFBFB" d="M179.156-113.396l1.577-15.485h15.901v3.646H184.08l-0.938,8.47c1.521-0.896,3.246-1.345,5.18-1.345
				c2.828,0,5.072,0.937,6.735,2.805c1.663,1.871,2.495,4.397,2.495,7.583c0,3.2-0.864,5.722-2.592,7.562
				c-1.726,1.842-4.138,2.762-7.235,2.762c-2.743,0-4.981-0.761-6.715-2.281c-1.733-1.522-2.722-3.628-2.963-6.315h3.73
				c0.241,1.779,0.874,3.118,1.897,4.022c1.022,0.902,2.373,1.354,4.05,1.354c1.833,0,3.271-0.627,4.315-1.877
				c1.045-1.252,1.566-2.979,1.566-5.185c0-2.075-0.564-3.744-1.693-5.001c-1.131-1.26-2.633-1.889-4.509-1.889
				c-1.72,0-3.069,0.377-4.05,1.131l-1.045,0.853L179.156-113.396z"/>
		</g>
	</g>
	
		<radialGradient id="SVGID_5_" cx="3035.6133" cy="2040.9316" r="163.4814" gradientTransform="matrix(0.2141 0 0 0.2132 -462.0731 -548.2837)" gradientUnits="userSpaceOnUse">
		<stop  offset="0" style="stop-color:#FFFFFF;stop-opacity:0.1"/>
		<stop  offset="1" style="stop-color:#FFFFFF;stop-opacity:0"/>
	</radialGradient>
	<path fill-rule="evenodd" clip-rule="evenodd" fill="url(#SVGID_5_)" d="M187.799-147.994c-19.329,0-34.998,15.605-34.998,34.854
		c0,19.25,15.669,34.854,34.998,34.854c19.332,0,35.002-15.604,35.002-34.854C222.801-132.388,207.131-147.994,187.799-147.994z"/>
</g>
<g>
	<g>
		<g>
			<g>
				<ellipse fill-rule="evenodd" clip-rule="evenodd" fill="#328ACA" cx="266.056" cy="-106.904" rx="34.975" ry="34.999"/>
			</g>
			<g opacity="0.2">
				<path fill-rule="evenodd" clip-rule="evenodd" fill="#263239" d="M266.056-72.303c-19.252,0-34.869-15.565-34.973-34.808
					c-0.001,0.068-0.003,0.138-0.003,0.206c0,19.33,15.659,34.999,34.976,34.999s34.975-15.669,34.975-34.999
					c0-0.066-0.002-0.132-0.002-0.199C300.921-87.866,285.306-72.303,266.056-72.303z"/>
			</g>
			<g opacity="0.2">
				<path fill-rule="evenodd" clip-rule="evenodd" fill="#FFFFFF" d="M266.006-141.507c-19.253,0-34.869,15.566-34.973,34.808
					c-0.001-0.069-0.003-0.138-0.003-0.206c0-19.33,15.659-35,34.976-35s34.975,15.67,34.975,35c0,0.065-0.003,0.131-0.003,0.198
					C300.87-125.944,285.256-141.507,266.006-141.507z"/>
			</g>
		</g>
		<path opacity="0.2" fill="#263239" d="M298.794-94.999l0.195-0.095l-27.539-27.519v0.364h-0.337
			c-4.804,0.071-8.42,1.614-10.851,4.627s-3.646,7.369-3.646,13.07v1.509c0,3.588,0.922,6.521,2.764,8.796
			c0.289,0.356,19.384,19.453,19.507,19.571c0.075,0.079,0.148,0.162,0.226,0.239c0.01-0.005,0.019-0.008,0.028-0.012
			c0.014-0.006,0.026-0.01,0.04-0.016c0.031-0.013,0.062-0.024,0.094-0.037c0.042-0.018,0.085-0.033,0.126-0.05
			c0.058-0.024,0.116-0.044,0.174-0.068c0.081-0.034,0.161-0.068,0.24-0.103c0.097-0.041,0.19-0.089,0.286-0.13
			c0.123-0.054,0.244-0.111,0.365-0.166c0.167-0.074,0.334-0.147,0.5-0.226c0.202-0.096,0.402-0.195,0.604-0.295
			c0.25-0.124,0.498-0.25,0.744-0.38c0.313-0.167,0.624-0.338,0.934-0.512c0.522-0.296,1.037-0.606,1.543-0.929
			c1.042-0.662,2.046-1.378,3.01-2.145c0.532-0.424,1.055-0.86,1.562-1.312c0.322-0.289,0.636-0.586,0.945-0.885
			c0.242-0.233,0.482-0.467,0.718-0.708c0.197-0.2,0.392-0.407,0.585-0.613c0.167-0.179,0.334-0.356,0.497-0.539
			c0.149-0.166,0.293-0.339,0.44-0.508c0.13-0.152,0.265-0.301,0.393-0.454c0.116-0.14,0.229-0.282,0.343-0.424
			c0.104-0.131,0.207-0.265,0.311-0.396c0.094-0.121,0.19-0.239,0.282-0.36c0.079-0.103,0.16-0.202,0.237-0.306
			c0.071-0.096,0.137-0.195,0.207-0.291c0.062-0.085,0.122-0.174,0.184-0.259c0.05-0.07,0.099-0.139,0.147-0.208
			c0.042-0.06,0.086-0.118,0.127-0.179c0.036-0.053,0.073-0.103,0.109-0.153c0.025-0.037,0.052-0.071,0.076-0.108
			c0.022-0.031,0.045-0.062,0.067-0.094c0.013-0.019,0.026-0.039,0.04-0.059c0.009-0.013,0.016-0.025,0.024-0.037
			c0.003-0.006,0.005-0.01,0.008-0.014c0.003-0.003,0.005-0.008,0.007-0.011c0.194-0.289,0.379-0.585,0.563-0.88
			c0.148-0.234,0.296-0.47,0.438-0.709c0.116-0.195,0.227-0.395,0.34-0.593c0.103-0.18,0.21-0.355,0.31-0.538
			c0.09-0.165,0.173-0.333,0.261-0.498c0.077-0.148,0.151-0.297,0.227-0.444c0.073-0.145,0.149-0.285,0.221-0.431
			c0.063-0.131,0.129-0.262,0.191-0.395c0.061-0.128,0.116-0.259,0.175-0.387c0.056-0.121,0.11-0.242,0.165-0.365
			c0.021-0.047,0.042-0.094,0.063-0.141c0.125-0.283,0.247-0.568,0.365-0.856c0.125-0.306,0.247-0.613,0.364-0.924
			c0.04-0.108,0.086-0.215,0.125-0.325h-0.125V-94.999z"/>
		<g>
			<path fill="#FBFBFB" d="M271.45-122.612v3.34h-0.723c-3.061,0.057-5.498,0.964-7.312,2.723c-1.813,1.758-2.863,4.232-3.146,7.423
				c1.63-1.871,3.854-2.807,6.675-2.807c2.692,0,4.842,0.949,6.45,2.85c1.608,1.899,2.413,4.352,2.413,7.358
				c0,3.19-0.868,5.742-2.604,7.657c-1.736,1.914-4.062,2.871-6.981,2.871c-2.962,0-5.363-1.138-7.206-3.413
				c-1.841-2.276-2.763-5.208-2.763-8.796v-1.51c0-5.7,1.215-10.057,3.646-13.069c2.43-3.014,6.047-4.556,10.851-4.627H271.45z
				 M266.285-108.66c-1.347,0-2.586,0.404-3.72,1.214c-1.134,0.808-1.92,1.821-2.359,3.04v1.447c0,2.552,0.574,4.608,1.723,6.168
				c1.146,1.56,2.578,2.34,4.293,2.34c1.771,0,3.163-0.652,4.176-1.957c1.014-1.304,1.521-3.013,1.521-5.127
				c0-2.126-0.514-3.845-1.541-5.156S267.986-108.66,266.285-108.66z"/>
		</g>
	</g>
	
		<radialGradient id="SVGID_6_" cx="2379.6387" cy="1527.7803" r="142.0532" gradientTransform="matrix(0.2464 0 0 0.2464 -320.278 -483.3278)" gradientUnits="userSpaceOnUse">
		<stop  offset="0" style="stop-color:#FFFFFF;stop-opacity:0.1"/>
		<stop  offset="1" style="stop-color:#FFFFFF;stop-opacity:0"/>
	</radialGradient>
	<circle fill-rule="evenodd" clip-rule="evenodd" fill="url(#SVGID_6_)" cx="266.029" cy="-106.905" r="35"/>
</g>
<rect x="-418.741" y="-116.753" opacity="0.2" fill="#FFFFFF" width="68.074" height="58.775"/>
<rect x="-418.741" y="-58.183" fill="#E72565" width="68.074" height="58.775"/>
<rect x="-418.741" y="0.182" opacity="0.2" fill="#3F2824" width="68.074" height="58.775"/>
<g>
	<g>
		
			<image overflow="visible" opacity="0.2" width="392" height="392" xlink:href="F835D1DDB646F1B9.png"  transform="matrix(0.24 0 0 0.24 310.0547 -149.6362)">
		</image>
		<g>
			<g>
				<g>
					<g>
						<ellipse fill-rule="evenodd" clip-rule="evenodd" fill="#328ACA" cx="357.08" cy="-106.635" rx="34.975" ry="34.999"/>
					</g>
					<g opacity="0.2">
						<path fill-rule="evenodd" clip-rule="evenodd" fill="#263239" d="M357.08-72.034c-19.252,0-34.869-15.567-34.973-34.808
							c0,0.068-0.002,0.137-0.002,0.206c0,19.329,15.658,34.999,34.975,34.999s34.975-15.67,34.975-34.999
							c0-0.066-0.002-0.132-0.002-0.199C391.945-87.597,376.33-72.034,357.08-72.034z"/>
					</g>
					<g opacity="0.2">
						<path fill-rule="evenodd" clip-rule="evenodd" fill="#FFFFFF" d="M357.03-141.238c-19.251,0-34.868,15.566-34.973,34.807
							c0-0.068-0.003-0.137-0.003-0.206c0-19.329,15.658-34.999,34.976-34.999c19.315,0,34.975,15.67,34.975,34.999
							c0,0.066-0.001,0.132-0.001,0.199C391.895-125.675,376.281-141.238,357.03-141.238z"/>
					</g>
				</g>
				<path opacity="0.2" fill="#263239" d="M367.658-122.337l-0.107,0.364h-20.734v2.893l-0.365,0.021l11.994,11.991l-7.277,15.795
					l-0.688,0.338l17.54,17.553l0.059-0.053h0.065c0.355-0.118,0.711-0.234,1.061-0.364c0.311-0.114,0.617-0.241,0.925-0.365
					c0.294-0.118,0.587-0.237,0.878-0.364c0.025-0.01,0.051-0.022,0.076-0.034c0.223-0.097,0.441-0.198,0.66-0.299
					c0.223-0.103,0.446-0.204,0.666-0.311c0.23-0.112,0.455-0.233,0.684-0.351c0.228-0.118,0.459-0.229,0.684-0.352
					c0.24-0.131,0.473-0.272,0.709-0.409c0.236-0.135,0.476-0.266,0.709-0.407c0.25-0.152,0.492-0.314,0.736-0.471
					c0.248-0.16,0.498-0.313,0.74-0.478c0.263-0.178,0.516-0.366,0.772-0.55c0.263-0.189,0.525-0.377,0.782-0.574
					c0.274-0.207,0.543-0.421,0.812-0.638c0.284-0.23,0.565-0.467,0.841-0.706c0.294-0.252,0.586-0.504,0.869-0.767
					c0.312-0.286,0.617-0.578,0.918-0.874c0.334-0.33,0.657-0.671,0.979-1.014c0.361-0.387,0.711-0.782,1.055-1.184
					c0.402-0.475,0.796-0.957,1.174-1.451c0.494-0.646,0.965-1.311,1.414-1.991c2.126-3.223,3.735-6.817,4.705-10.667
					c0.021-0.084,0.04-0.168,0.059-0.254l0.002,0.002l0.126-0.509L367.658-122.337z"/>
				<g>
					<path fill="#FBFBFB" d="M367.658-120.094l-12.996,29.159h-4.182l12.955-28.124h-16.984v-3.278h21.207V-120.094z"/>
				</g>
			</g>
		</g>
	</g>
	
		<radialGradient id="SVGID_7_" cx="2203.1504" cy="1283.0449" r="142.0547" gradientTransform="matrix(0.2464 0 0 0.2464 -185.7697 -422.7594)" gradientUnits="userSpaceOnUse">
		<stop  offset="0" style="stop-color:#FFFFFF;stop-opacity:0.1"/>
		<stop  offset="1" style="stop-color:#FFFFFF;stop-opacity:0"/>
	</radialGradient>
	<path fill-rule="evenodd" clip-rule="evenodd" fill="url(#SVGID_7_)" d="M357.053-141.636c-19.328,0-34.998,15.672-34.998,35
		c0,19.331,15.67,35,34.998,35c19.332,0,35.002-15.669,35.002-35C392.055-125.964,376.385-141.636,357.053-141.636z"/>
</g>
<g>
	<g>
		
			<image overflow="visible" opacity="0.2" width="392" height="392" xlink:href="F835D1DDB646F1BE.png"  transform="matrix(0.24 0 0 0.24 399 -144.1138)">
		</image>
		<g>
			<g>
				<g>
					<ellipse fill-rule="evenodd" clip-rule="evenodd" fill="#328ACA" cx="446.013" cy="-101.114" rx="34.974" ry="34.999"/>
				</g>
				<path opacity="0.2" fill="#263239" d="M452.885-114.17c-1.656-1.51-3.825-2.265-6.507-2.265c-2.696,0-4.869,0.755-6.518,2.265
					s-2.474,3.551-2.474,6.124c0,1.51,0.392,2.858,1.174,4.047c0.29,0.44,0.634,0.834,1.003,1.202
					c0.112,0.13,0.241,0.244,0.364,0.365c0.112,0.129,0.242,0.243,0.364,0.364c0.112,0.13,0.242,0.243,0.365,0.364
					c0.112,0.13,0.241,0.244,0.364,0.365c0.104,0.119,0.225,0.225,0.336,0.337c-1.392,0.675-2.512,1.604-3.331,2.812
					c-0.901,1.329-1.352,2.817-1.352,4.466c0,2.484,0.799,4.49,2.378,6.033c0.114,0.125,19.198,19.2,19.32,19.32
					c0.008-0.002,0.013-0.005,0.019-0.008c0.021-0.007,0.04-0.016,0.06-0.022c0.034-0.013,0.068-0.027,0.102-0.04
					c0.046-0.017,0.09-0.035,0.134-0.053c0.067-0.027,0.133-0.053,0.199-0.078c0.086-0.034,0.173-0.068,0.258-0.103
					c0.107-0.044,0.217-0.083,0.323-0.127c0.127-0.054,0.254-0.109,0.382-0.164c0.154-0.066,0.305-0.138,0.457-0.207
					c0.192-0.086,0.386-0.172,0.577-0.261c0.222-0.104,0.442-0.213,0.662-0.322c0.258-0.128,0.514-0.259,0.768-0.393
					c0.319-0.169,0.632-0.342,0.944-0.521c0.435-0.246,0.864-0.501,1.286-0.766c1.555-0.975,3.026-2.068,4.403-3.268
					c0.37-0.321,0.731-0.65,1.088-0.986c0.233-0.221,0.47-0.438,0.696-0.664c0.188-0.188,0.366-0.385,0.55-0.577
					c0.149-0.156,0.302-0.31,0.448-0.471c0.132-0.142,0.26-0.285,0.388-0.429c0.108-0.121,0.214-0.247,0.319-0.369
					c0.09-0.103,0.178-0.203,0.267-0.307c0.07-0.085,0.146-0.166,0.218-0.253c0.06-0.07,0.118-0.143,0.176-0.214
					c0.048-0.057,0.092-0.116,0.137-0.175c0.037-0.046,0.071-0.092,0.107-0.136c0.027-0.034,0.053-0.068,0.08-0.103
					c0.017-0.02,0.032-0.041,0.05-0.062c0.011-0.015,0.021-0.027,0.032-0.041c0.007-0.009,0.015-0.018,0.021-0.027
					c0.112-0.144,0.228-0.286,0.339-0.433c0.5-0.658,0.976-1.335,1.429-2.028c0.337-0.517,0.66-1.042,0.973-1.578
					c0.32-0.553,0.625-1.113,0.916-1.683c0.141-0.276,0.284-0.552,0.417-0.831c0.103-0.213,0.195-0.433,0.293-0.647
					c0.074-0.165,0.151-0.328,0.223-0.493c0.056-0.128,0.113-0.255,0.168-0.385c0.043-0.103,0.079-0.206,0.121-0.309
					c0.029-0.072,0.059-0.148,0.088-0.223c0.021-0.048,0.039-0.097,0.058-0.146c0.014-0.032,0.026-0.066,0.039-0.1
					c0.009-0.021,0.018-0.043,0.026-0.063c0,0,0-0.003,0.001-0.005C478.542-88.507,453.004-114.061,452.885-114.17z"/>
				<g opacity="0.2">
					<path fill-rule="evenodd" clip-rule="evenodd" fill="#263239" d="M446.025-66.512c-19.251,0-34.868-15.566-34.973-34.807
						c0,0.068-0.003,0.137-0.003,0.206c0,19.329,15.66,34.999,34.976,34.999c19.316,0,34.975-15.67,34.975-34.999
						c0-0.066-0.001-0.132-0.001-0.199C480.891-82.075,465.276-66.512,446.025-66.512z"/>
				</g>
				<g opacity="0.2">
					<path fill-rule="evenodd" clip-rule="evenodd" fill="#FFFFFF" d="M445.976-135.716c-19.253,0-34.868,15.565-34.973,34.808
						c0-0.068-0.003-0.137-0.003-0.206c0-19.33,15.659-34.999,34.976-34.999s34.975,15.669,34.975,34.999
						c0,0.066-0.001,0.132-0.001,0.199C480.841-120.153,465.225-135.716,445.976-135.716z"/>
				</g>
				<g>
					<path fill="#FBFBFB" d="M455.004-108.411c0,1.523-0.401,2.879-1.205,4.066c-0.803,1.189-1.89,2.119-3.26,2.79
						c1.594,0.686,2.854,1.686,3.784,3c0.929,1.312,1.393,2.803,1.393,4.466c0,2.644-0.89,4.747-2.672,6.312
						c-1.781,1.566-4.126,2.351-7.031,2.351c-2.934,0-5.285-0.788-7.051-2.36c-1.769-1.572-2.651-3.673-2.651-6.302
						c0-1.649,0.45-3.138,1.352-4.466c0.901-1.329,2.147-2.336,3.741-3.021c-1.356-0.671-2.424-1.602-3.207-2.789
						c-0.782-1.189-1.174-2.538-1.174-4.047c0-2.574,0.824-4.615,2.474-6.124c1.647-1.51,3.821-2.265,6.517-2.265
						c2.682,0,4.851,0.755,6.507,2.265C454.175-113.026,455.004-110.985,455.004-108.411z M451.839-94.172
						c0-1.706-0.541-3.096-1.625-4.173c-1.082-1.077-2.496-1.615-4.242-1.615s-3.147,0.531-4.202,1.594s-1.583,2.461-1.583,4.194
						c0,1.734,0.515,3.096,1.541,4.089c1.027,0.994,2.455,1.489,4.285,1.489c1.816,0,3.242-0.5,4.275-1.499
						C451.322-91.093,451.839-92.452,451.839-94.172z M446.013-113.612c-1.522,0-2.756,0.471-3.698,1.415s-1.414,2.227-1.414,3.849
						c0,1.551,0.464,2.807,1.393,3.764c0.929,0.959,2.169,1.438,3.72,1.438s2.792-0.479,3.721-1.438
						c0.928-0.957,1.394-2.213,1.394-3.764c0-1.553-0.482-2.817-1.446-3.796C448.716-113.123,447.494-113.612,446.013-113.612z"/>
				</g>
			</g>
		</g>
	</g>
	
		<radialGradient id="SVGID_8_" cx="651.127" cy="-106.7603" r="71.0164" gradientTransform="matrix(0.4928 0 0 0.4928 125.0964 -48.4978)" gradientUnits="userSpaceOnUse">
		<stop  offset="0" style="stop-color:#FFFFFF;stop-opacity:0.1"/>
		<stop  offset="1" style="stop-color:#FFFFFF;stop-opacity:0"/>
	</radialGradient>
	<circle fill-rule="evenodd" clip-rule="evenodd" fill="url(#SVGID_8_)" cx="445.999" cy="-101.114" r="35"/>
</g>
</svg>
