<?xml version="1.0" encoding="utf-8"?>
<!-- Generator: Adobe Illustrator 16.0.4, SVG Export Plug-In . SVG Version: 6.00 Build 0)  -->
<!DOCTYPE svg PUBLIC "-//W3C//DTD SVG 1.1//EN" "http://www.w3.org/Graphics/SVG/1.1/DTD/svg11.dtd">
<svg version="1.1" id="Capa_1" xmlns="http://www.w3.org/2000/svg" xmlns:xlink="http://www.w3.org/1999/xlink" x="0px" y="0px"
	 width="48px" height="48px" viewBox="0 0 48 48" enable-background="new 0 0 48 48" xml:space="preserve">
<g>
	<g>
		<g>
			<g>
				<ellipse fill-rule="evenodd" clip-rule="evenodd" fill="#E72765" cx="24.017" cy="24" rx="23.983" ry="24"/>
			</g>
			<g opacity="0.2">
				<path fill-rule="evenodd" clip-rule="evenodd" fill="#402823" d="M24.017,47.727c-13.202,0-23.91-10.674-23.981-23.868
					c0,0.047-0.001,0.094-0.001,0.142C0.034,37.255,10.771,48,24.017,48C37.263,48,48,37.255,48,24.001
					c0-0.046-0.002-0.091-0.002-0.137C47.925,37.056,37.217,47.727,24.017,47.727z"/>
			</g>
			<g opacity="0.2">
				<path fill-rule="evenodd" clip-rule="evenodd" fill="#FFFFFF" d="M23.982,0.273c-13.201,0-23.91,10.674-23.981,23.868
					C0.001,24.094,0,24.047,0,23.999C0,10.745,10.737,0,23.982,0s23.983,10.745,23.983,23.999c0,0.045-0.002,0.091-0.002,0.137
					C47.89,10.944,37.183,0.273,23.982,0.273z"/>
			</g>
		</g>
		<g>
			<path fill="none" d="M27.23,47.63c-0.048-0.044-0.093-0.089-0.136-0.136c-0.048-0.044-0.094-0.09-0.137-0.137
				c-0.048-0.043-0.093-0.089-0.137-0.137c-0.047-0.043-0.093-0.089-0.136-0.137c-0.048-0.043-0.093-0.088-0.137-0.136
				c-0.048-0.044-0.093-0.089-0.136-0.137c-0.048-0.043-0.094-0.089-0.137-0.136c-0.047-0.044-0.093-0.089-0.137-0.137
				c-0.047-0.043-0.092-0.089-0.136-0.137c-0.048-0.043-0.093-0.088-0.136-0.136c-0.048-0.044-0.094-0.089-0.137-0.137
				c-0.047-0.043-0.093-0.089-0.137-0.136c-0.047-0.044-0.092-0.09-0.136-0.137c-0.048-0.043-0.093-0.089-0.136-0.137
				c-0.048-0.043-0.094-0.089-0.137-0.137c-0.048-0.043-0.093-0.088-0.137-0.136c-0.047-0.044-0.093-0.089-0.136-0.136
				c-0.048-0.044-0.093-0.09-0.136-0.137c-0.048-0.044-0.093-0.089-0.136-0.137c-0.048-0.043-0.093-0.089-0.137-0.137
				c-0.047-0.043-0.093-0.088-0.136-0.136c-0.047-0.044-0.093-0.089-0.136-0.137c-0.047-0.043-0.093-0.089-0.136-0.136
				c-0.047-0.044-0.093-0.09-0.136-0.137c-0.047-0.043-0.093-0.089-0.136-0.137c-0.047-0.043-0.093-0.088-0.136-0.137
				c-0.047-0.043-0.093-0.088-0.136-0.136c-0.047-0.044-0.093-0.089-0.136-0.136c-0.047-0.044-0.093-0.09-0.136-0.137
				c-0.047-0.044-0.093-0.089-0.136-0.137c-0.048-0.043-0.093-0.089-0.136-0.137c-0.048-0.043-0.093-0.088-0.136-0.136
				c-0.048-0.044-0.093-0.089-0.137-0.137c-0.047-0.043-0.093-0.089-0.136-0.136c-0.048-0.044-0.093-0.09-0.137-0.137
				c-0.047-0.043-0.093-0.089-0.136-0.137c-0.047-0.043-0.093-0.088-0.136-0.136c-0.047-0.044-0.093-0.089-0.136-0.137
				c-0.047-0.044-0.093-0.089-0.136-0.136c-0.047-0.044-0.093-0.09-0.136-0.137c-0.047-0.043-0.093-0.089-0.136-0.137
				c-0.047-0.043-0.093-0.089-0.136-0.137c-0.047-0.043-0.093-0.088-0.136-0.136c-0.048-0.044-0.093-0.089-0.136-0.137
				c-0.047-0.043-0.093-0.089-0.136-0.136c-0.048-0.044-0.093-0.09-0.137-0.137c-0.047-0.043-0.093-0.089-0.136-0.137
				c-0.048-0.043-0.093-0.088-0.137-0.136c-0.047-0.044-0.093-0.089-0.136-0.137c-0.047-0.044-0.093-0.089-0.136-0.136
				c-0.047-0.044-0.093-0.09-0.136-0.137c-0.047-0.043-0.093-0.089-0.136-0.137c-0.047-0.043-0.093-0.089-0.136-0.137
				c-0.047-0.043-0.093-0.088-0.136-0.136c-0.047-0.044-0.093-0.089-0.136-0.137c-0.047-0.043-0.093-0.089-0.136-0.136
				c-0.048-0.044-0.093-0.089-0.136-0.137c-0.047-0.043-0.093-0.089-0.136-0.137c-0.048-0.043-0.093-0.088-0.136-0.136
				c-0.048-0.044-0.093-0.089-0.136-0.137c-0.048-0.044-0.093-0.089-0.137-0.136c-0.047-0.044-0.093-0.09-0.136-0.137
				c-0.047-0.043-0.093-0.089-0.136-0.137c-0.047-0.043-0.093-0.089-0.136-0.137c-0.047-0.043-0.093-0.088-0.136-0.136
				c-0.047-0.044-0.093-0.089-0.136-0.137c-0.047-0.043-0.093-0.089-0.136-0.136c-0.047-0.044-0.093-0.089-0.136-0.137
				c-0.047-0.043-0.093-0.089-0.136-0.137c-0.047-0.043-0.093-0.088-0.136-0.136c-0.047-0.044-0.093-0.089-0.136-0.137
				c-0.048-0.043-0.093-0.089-0.136-0.136c-0.048-0.044-0.093-0.09-0.136-0.137c-0.048-0.043-0.093-0.089-0.137-0.137
				c-0.047-0.043-0.093-0.089-0.136-0.137c-0.048-0.043-0.093-0.088-0.137-0.136c-0.047-0.044-0.093-0.089-0.136-0.136
				c-0.047-0.044-0.093-0.09-0.136-0.137c-0.047-0.044-0.093-0.089-0.136-0.137c-0.047-0.043-0.093-0.089-0.136-0.137
				c-0.047-0.043-0.093-0.088-0.136-0.136c-0.047-0.044-0.093-0.089-0.136-0.137c-0.047-0.043-0.093-0.089-0.136-0.136
				c-0.047-0.044-0.093-0.09-0.136-0.137c-0.048-0.043-0.093-0.089-0.136-0.137c-0.047-0.043-0.093-0.088-0.136-0.137
				c-0.048-0.043-0.093-0.088-0.136-0.136c-0.048-0.044-0.093-0.089-0.136-0.136c-0.048-0.044-0.093-0.09-0.137-0.137
				c-0.047-0.044-0.093-0.089-0.136-0.137c-0.047-0.043-0.093-0.089-0.136-0.137c-0.047-0.043-0.093-0.088-0.136-0.136
				c-0.047-0.044-0.093-0.089-0.136-0.137c-0.047-0.043-0.093-0.089-0.136-0.136c-0.047-0.044-0.093-0.09-0.136-0.137
				c-0.047-0.043-0.093-0.089-0.136-0.137c-0.047-0.043-0.093-0.088-0.136-0.136c-0.433-0.396-0.706-0.965-0.706-1.599V15.467
				c0-1.197,0.97-2.167,2.166-2.167h17.326c0.632,0,1.2,0.272,1.598,0.707c0.047,0.043,0.093,0.088,0.136,0.136
				c0.048,0.043,0.093,0.089,0.137,0.136c0.047,0.043,0.093,0.089,0.137,0.136c0.047,0.044,0.092,0.089,0.136,0.137
				c0.048,0.043,0.093,0.089,0.136,0.136c0.048,0.043,0.094,0.089,0.137,0.136c0.047,0.043,0.093,0.089,0.137,0.137
				c0.047,0.043,0.092,0.089,0.136,0.136c0.048,0.043,0.093,0.089,0.136,0.136c0.048,0.043,0.094,0.089,0.137,0.136
				c0.047,0.043,0.093,0.089,0.137,0.136c0.047,0.044,0.092,0.089,0.136,0.137c0.048,0.043,0.093,0.089,0.136,0.136
				c0.048,0.043,0.094,0.089,0.137,0.136c0.048,0.043,0.093,0.089,0.137,0.137c0.047,0.043,0.093,0.089,0.137,0.136
				c0.047,0.043,0.092,0.089,0.136,0.136c0.048,0.043,0.093,0.089,0.136,0.137c0.048,0.043,0.094,0.089,0.137,0.136
				c0.047,0.043,0.093,0.088,0.137,0.136c0.047,0.043,0.092,0.089,0.136,0.136c0.048,0.043,0.093,0.089,0.136,0.136
				c0.048,0.044,0.094,0.089,0.137,0.137c0.047,0.043,0.093,0.089,0.137,0.136c0.047,0.043,0.092,0.089,0.136,0.136
				c0.048,0.043,0.093,0.089,0.136,0.137c0.048,0.043,0.094,0.089,0.137,0.136c0.047,0.043,0.093,0.089,0.137,0.136
				c0.047,0.043,0.092,0.089,0.136,0.137c0.048,0.043,0.093,0.088,0.137,0.136c0.048,0.043,0.093,0.088,0.136,0.136
				c0.048,0.043,0.094,0.089,0.137,0.136c0.047,0.043,0.093,0.089,0.137,0.136c0.047,0.044,0.092,0.089,0.136,0.137
				c0.048,0.043,0.093,0.089,0.136,0.136c0.048,0.043,0.094,0.089,0.137,0.136c0.047,0.043,0.093,0.089,0.137,0.137
				c0.047,0.043,0.092,0.089,0.136,0.136c0.048,0.043,0.093,0.089,0.136,0.136c0.048,0.043,0.094,0.089,0.137,0.136
				c0.047,0.043,0.093,0.089,0.137,0.136c0.047,0.044,0.092,0.089,0.136,0.137c0.048,0.043,0.093,0.089,0.137,0.136
				c0.047,0.043,0.093,0.089,0.136,0.136c0.048,0.043,0.093,0.089,0.137,0.137c0.047,0.043,0.093,0.089,0.137,0.136
				c0.047,0.043,0.092,0.089,0.136,0.136c0.048,0.043,0.093,0.089,0.136,0.137c0.048,0.043,0.094,0.089,0.137,0.136
				c0.047,0.043,0.093,0.088,0.137,0.136c0.047,0.043,0.092,0.089,0.136,0.136c0.048,0.043,0.093,0.089,0.136,0.136
				c0.048,0.044,0.094,0.089,0.137,0.137c0.047,0.043,0.093,0.089,0.137,0.136c0.047,0.043,0.092,0.089,0.136,0.136
				c0.048,0.043,0.093,0.089,0.137,0.137c0.047,0.043,0.093,0.089,0.136,0.136c0.048,0.043,0.093,0.089,0.137,0.136
				c0.047,0.043,0.093,0.089,0.137,0.137c0.047,0.043,0.092,0.088,0.136,0.136c0.048,0.044,0.093,0.089,0.136,0.137
				c0.048,0.043,0.094,0.089,0.137,0.136c0.047,0.043,0.093,0.089,0.137,0.136c0.047,0.044,0.092,0.089,0.136,0.137
				c0.048,0.043,0.093,0.089,0.136,0.136c0.048,0.043,0.094,0.089,0.137,0.136c0.047,0.043,0.093,0.089,0.137,0.137
				c0.047,0.043,0.092,0.089,0.136,0.136c0.048,0.043,0.093,0.089,0.137,0.136c0.047,0.043,0.093,0.089,0.136,0.136
				c0.048,0.043,0.093,0.089,0.137,0.136c0.047,0.044,0.093,0.089,0.137,0.137c0.047,0.043,0.092,0.089,0.136,0.136
				c0.048,0.043,0.093,0.089,0.136,0.136c0.048,0.043,0.094,0.089,0.137,0.137c0.047,0.043,0.093,0.089,0.137,0.136
				c0.047,0.043,0.092,0.089,0.136,0.136c0.048,0.043,0.093,0.089,0.136,0.137c0.048,0.043,0.094,0.089,0.137,0.136
				c0.047,0.043,0.093,0.088,0.137,0.136c0.047,0.043,0.092,0.089,0.136,0.136c0.048,0.044,0.093,0.09,0.136,0.137
				c0.048,0.044,0.094,0.089,0.137,0.137c0.048,0.043,0.093,0.089,0.137,0.137c0.047,0.043,0.093,0.088,0.137,0.136
				c0.047,0.044,0.092,0.089,0.136,0.137c0.048,0.043,0.093,0.089,0.136,0.136c0.048,0.044,0.094,0.09,0.137,0.137
				c0.047,0.043,0.093,0.089,0.137,0.137c0.047,0.043,0.092,0.088,0.136,0.136c0.048,0.044,0.093,0.089,0.136,0.137
				c0.048,0.044,0.094,0.089,0.137,0.136c0.047,0.044,0.093,0.09,0.137,0.137c0.047,0.044,0.092,0.089,0.136,0.137
				c0.048,0.043,0.093,0.089,0.136,0.137c0.048,0.043,0.094,0.088,0.137,0.136c0.047,0.044,0.093,0.089,0.137,0.137
				c0.047,0.043,0.092,0.089,0.136,0.136c0.005,0.004,0.008,0.008,0.012,0.012C47.917,26.276,48,25.148,48,24
				c0-13.254-10.737-24-23.983-24S0.034,10.746,0.034,24s10.737,24,23.983,24c1.136,0,2.254-0.081,3.349-0.234
				C27.319,47.723,27.273,47.678,27.23,47.63z"/>
			<path opacity="0.2" fill="#1E1E1C" d="M47.614,27.233c-0.044-0.048-0.09-0.093-0.137-0.137c-0.043-0.048-0.089-0.093-0.137-0.136
				c-0.043-0.048-0.088-0.094-0.136-0.137c-0.044-0.048-0.089-0.093-0.136-0.137c-0.044-0.047-0.09-0.093-0.137-0.137
				c-0.043-0.047-0.089-0.092-0.137-0.136c-0.043-0.048-0.088-0.093-0.136-0.137c-0.044-0.048-0.089-0.093-0.136-0.136
				c-0.044-0.048-0.09-0.094-0.137-0.137c-0.043-0.047-0.089-0.093-0.137-0.137c-0.043-0.047-0.088-0.093-0.136-0.136
				c-0.044-0.048-0.089-0.093-0.136-0.137c-0.044-0.048-0.09-0.093-0.137-0.136c-0.044-0.048-0.089-0.094-0.137-0.137
				c-0.043-0.048-0.089-0.093-0.137-0.137c-0.043-0.047-0.088-0.093-0.136-0.137c-0.044-0.047-0.089-0.092-0.136-0.136
				c-0.044-0.048-0.09-0.093-0.137-0.136c-0.043-0.047-0.089-0.093-0.137-0.136c-0.043-0.048-0.088-0.093-0.136-0.137
				c-0.044-0.047-0.089-0.093-0.136-0.136c-0.044-0.047-0.09-0.093-0.137-0.136c-0.043-0.048-0.089-0.093-0.137-0.137
				c-0.043-0.047-0.088-0.093-0.136-0.136c-0.044-0.047-0.089-0.093-0.136-0.136c-0.044-0.048-0.09-0.093-0.137-0.137
				c-0.044-0.047-0.089-0.093-0.137-0.136c-0.043-0.047-0.089-0.093-0.136-0.136c-0.044-0.047-0.089-0.093-0.137-0.136
				c-0.044-0.047-0.089-0.093-0.136-0.136c-0.044-0.048-0.09-0.093-0.137-0.137c-0.043-0.047-0.089-0.093-0.137-0.136
				c-0.043-0.047-0.088-0.093-0.136-0.136c-0.044-0.048-0.089-0.093-0.136-0.137c-0.044-0.047-0.09-0.093-0.137-0.136
				c-0.043-0.047-0.089-0.093-0.137-0.136c-0.043-0.048-0.088-0.093-0.136-0.137c-0.044-0.047-0.089-0.093-0.136-0.136
				c-0.044-0.048-0.09-0.093-0.137-0.137c-0.044-0.047-0.089-0.093-0.137-0.136c-0.043-0.047-0.089-0.093-0.136-0.136
				c-0.044-0.048-0.089-0.093-0.137-0.137c-0.044-0.047-0.089-0.093-0.136-0.136c-0.044-0.047-0.09-0.093-0.137-0.136
				c-0.043-0.048-0.089-0.093-0.137-0.137c-0.043-0.047-0.088-0.093-0.136-0.136c-0.044-0.047-0.089-0.093-0.136-0.136
				c-0.044-0.048-0.09-0.093-0.137-0.136c-0.043-0.047-0.089-0.093-0.137-0.136c-0.043-0.048-0.088-0.093-0.136-0.137
				c-0.044-0.047-0.089-0.093-0.136-0.136c-0.044-0.047-0.09-0.093-0.137-0.136c-0.044-0.048-0.089-0.093-0.137-0.137
				c-0.043-0.047-0.089-0.093-0.136-0.136c-0.044-0.047-0.089-0.093-0.137-0.136c-0.044-0.048-0.089-0.093-0.136-0.137
				c-0.044-0.047-0.09-0.093-0.137-0.136c-0.043-0.047-0.089-0.093-0.137-0.136c-0.043-0.047-0.088-0.093-0.136-0.136
				c-0.044-0.047-0.089-0.093-0.136-0.136c-0.044-0.048-0.09-0.093-0.137-0.137c-0.043-0.047-0.089-0.093-0.137-0.136
				c-0.043-0.047-0.088-0.093-0.136-0.136c-0.044-0.048-0.089-0.093-0.136-0.137c-0.044-0.047-0.09-0.093-0.137-0.136
				c-0.043-0.047-0.089-0.093-0.137-0.136c-0.043-0.048-0.088-0.093-0.136-0.136c-0.044-0.048-0.089-0.093-0.137-0.136
				c-0.044-0.048-0.089-0.093-0.136-0.137c-0.044-0.047-0.09-0.093-0.137-0.136c-0.043-0.047-0.089-0.093-0.137-0.136
				c-0.043-0.048-0.088-0.093-0.136-0.137c-0.044-0.047-0.089-0.093-0.136-0.136c-0.044-0.047-0.09-0.093-0.137-0.136
				c-0.043-0.048-0.089-0.093-0.137-0.137c-0.043-0.047-0.088-0.093-0.136-0.136c-0.044-0.047-0.089-0.093-0.136-0.136
				c-0.044-0.048-0.09-0.093-0.137-0.136c-0.043-0.047-0.089-0.093-0.137-0.136c-0.043-0.048-0.088-0.093-0.136-0.137
				c-0.044-0.047-0.089-0.093-0.136-0.136c-0.044-0.047-0.09-0.093-0.137-0.136c-0.044-0.048-0.089-0.093-0.137-0.137
				c-0.043-0.047-0.089-0.093-0.137-0.136c-0.043-0.047-0.088-0.093-0.136-0.136c-0.044-0.048-0.089-0.093-0.136-0.137
				c-0.044-0.047-0.09-0.093-0.137-0.136c-0.043-0.047-0.089-0.093-0.137-0.136c-0.043-0.047-0.088-0.093-0.136-0.136
				c-0.044-0.047-0.089-0.093-0.136-0.136c-0.044-0.048-0.09-0.093-0.137-0.137c-0.043-0.047-0.089-0.093-0.137-0.136
				c-0.043-0.047-0.088-0.093-0.136-0.136c-0.044-0.048-0.089-0.093-0.136-0.137c-0.044-0.047-0.09-0.093-0.137-0.136
				c-0.044-0.047-0.089-0.093-0.137-0.136c-0.043-0.048-0.089-0.093-0.136-0.136c-0.397-0.434-0.966-0.707-1.598-0.707H15.473
				c-1.196,0-2.166,0.97-2.166,2.167v17.338c0,0.634,0.273,1.202,0.706,1.599c0.043,0.048,0.089,0.093,0.136,0.136
				c0.043,0.048,0.089,0.094,0.136,0.137c0.043,0.047,0.089,0.093,0.136,0.137c0.043,0.047,0.089,0.093,0.136,0.136
				c0.043,0.048,0.089,0.093,0.136,0.137c0.043,0.048,0.089,0.093,0.136,0.136c0.043,0.048,0.089,0.094,0.136,0.137
				c0.043,0.048,0.089,0.093,0.136,0.137c0.043,0.047,0.089,0.093,0.137,0.137c0.043,0.047,0.088,0.092,0.136,0.136
				c0.043,0.048,0.088,0.093,0.136,0.136c0.043,0.049,0.089,0.094,0.136,0.137c0.043,0.048,0.088,0.094,0.136,0.137
				c0.043,0.047,0.089,0.093,0.136,0.137c0.043,0.047,0.089,0.093,0.136,0.136c0.043,0.048,0.089,0.093,0.136,0.137
				c0.043,0.048,0.089,0.093,0.136,0.136c0.043,0.048,0.089,0.094,0.136,0.137c0.043,0.048,0.089,0.093,0.136,0.137
				c0.043,0.047,0.089,0.093,0.136,0.137c0.043,0.047,0.089,0.092,0.136,0.136c0.043,0.048,0.089,0.093,0.137,0.136
				c0.043,0.048,0.088,0.094,0.136,0.137c0.043,0.048,0.089,0.094,0.137,0.137c0.043,0.047,0.088,0.093,0.136,0.137
				c0.043,0.047,0.088,0.093,0.136,0.136c0.043,0.048,0.089,0.093,0.136,0.137c0.043,0.048,0.089,0.093,0.136,0.136
				c0.043,0.048,0.089,0.094,0.136,0.137c0.043,0.048,0.089,0.093,0.136,0.137c0.043,0.047,0.089,0.093,0.136,0.136
				c0.043,0.048,0.089,0.093,0.136,0.137c0.043,0.048,0.089,0.093,0.136,0.136c0.043,0.048,0.089,0.094,0.136,0.137
				c0.043,0.048,0.089,0.094,0.136,0.137c0.043,0.047,0.089,0.093,0.136,0.137c0.043,0.047,0.089,0.092,0.137,0.136
				c0.043,0.048,0.088,0.093,0.136,0.137c0.043,0.048,0.088,0.093,0.136,0.136c0.043,0.048,0.089,0.094,0.136,0.137
				c0.043,0.048,0.088,0.093,0.136,0.137c0.043,0.047,0.089,0.093,0.136,0.136c0.043,0.048,0.089,0.093,0.136,0.137
				c0.043,0.048,0.089,0.093,0.136,0.136c0.043,0.048,0.089,0.094,0.136,0.137c0.043,0.048,0.089,0.094,0.136,0.137
				c0.043,0.047,0.089,0.093,0.136,0.137c0.043,0.047,0.089,0.092,0.136,0.136c0.043,0.048,0.089,0.093,0.136,0.137
				c0.043,0.048,0.089,0.093,0.137,0.136c0.043,0.048,0.088,0.094,0.136,0.137c0.043,0.047,0.089,0.093,0.137,0.137
				c0.043,0.047,0.089,0.093,0.136,0.136c0.043,0.048,0.088,0.093,0.136,0.137c0.043,0.048,0.089,0.093,0.136,0.136
				c0.043,0.048,0.089,0.094,0.136,0.137c0.043,0.048,0.089,0.094,0.136,0.137c0.043,0.047,0.089,0.093,0.136,0.137
				c0.043,0.047,0.089,0.092,0.136,0.136c0.043,0.048,0.089,0.093,0.136,0.137c0.043,0.048,0.089,0.093,0.136,0.136
				c0.043,0.048,0.089,0.094,0.136,0.137c0.043,0.047,0.089,0.093,0.137,0.137c0.043,0.047,0.088,0.093,0.136,0.136
				c0.043,0.048,0.089,0.093,0.137,0.137c0.043,0.048,0.088,0.093,0.136,0.136c0.043,0.048,0.088,0.094,0.136,0.137
				c0.043,0.048,0.089,0.093,0.136,0.137c0.043,0.047,0.089,0.093,0.136,0.137c0.043,0.047,0.089,0.092,0.136,0.136
				c0.043,0.048,0.089,0.093,0.136,0.136c0.043,0.049,0.089,0.094,0.136,0.137c0.043,0.048,0.089,0.094,0.136,0.137
				c0.043,0.047,0.089,0.093,0.136,0.137c0.043,0.047,0.089,0.093,0.136,0.136c0.043,0.048,0.089,0.093,0.136,0.137
				c0.043,0.048,0.089,0.093,0.136,0.136c0.043,0.048,0.089,0.094,0.137,0.137c0.043,0.048,0.088,0.093,0.136,0.137
				c0.043,0.047,0.088,0.093,0.136,0.137c0.043,0.047,0.089,0.092,0.136,0.136c0.044,0.048,0.089,0.093,0.137,0.136
				c0.043,0.048,0.089,0.094,0.137,0.137c0.043,0.048,0.088,0.094,0.136,0.137c0.044,0.047,0.089,0.093,0.136,0.137
				c0.044,0.047,0.09,0.093,0.137,0.136c0.043,0.048,0.089,0.093,0.137,0.137c0.043,0.048,0.088,0.093,0.136,0.136
				c0.044,0.048,0.089,0.094,0.136,0.137c0.044,0.048,0.09,0.093,0.137,0.137c0.043,0.047,0.089,0.093,0.137,0.136
				c0.043,0.048,0.088,0.093,0.136,0.137c0.044,0.048,0.089,0.093,0.137,0.136c0.043,0.048,0.089,0.094,0.136,0.137
				c0.044,0.048,0.089,0.094,0.137,0.137c0.043,0.047,0.089,0.093,0.137,0.137c0.043,0.047,0.088,0.092,0.136,0.136
				c0.043,0.048,0.089,0.093,0.136,0.136c10.555-1.477,18.908-9.826,20.396-20.385c-0.004-0.004-0.007-0.008-0.012-0.012
				C47.706,27.322,47.661,27.276,47.614,27.233z"/>
		</g>
		<g>
			<path fill="#FCFBFB" d="M31.58,15.331v3.251h-2.165c-0.6,0-1.084,0.485-1.084,1.083v2.168h3.249v3.251h-3.249v7.585h-3.248
				v-7.585h-2.166v-3.251h2.166v-2.709c0-2.103,1.7-3.793,3.79-3.793 M32.663,13.163H15.336c-1.196,0-2.166,0.971-2.166,2.167
				v17.338c0,1.197,0.97,2.168,2.166,2.168h17.327c1.195,0,2.166-0.971,2.166-2.168V15.331
				C34.829,14.128,33.854,13.163,32.663,13.163z"/>
		</g>
	</g>
	
		<radialGradient id="SVGID_1_" cx="7048.9531" cy="9200.8633" r="163.4863" gradientTransform="matrix(0.1468 0 0 0.1468 -1010.7898 -1326.7184)" gradientUnits="userSpaceOnUse">
		<stop  offset="0" style="stop-color:#FFFFFF;stop-opacity:0.1"/>
		<stop  offset="1" style="stop-color:#FFFFFF;stop-opacity:0"/>
	</radialGradient>
	<circle fill-rule="evenodd" clip-rule="evenodd" fill="url(#SVGID_1_)" cx="23.999" cy="24" r="24"/>
</g>
</svg>
