<?xml version="1.0" encoding="utf-8"?>
<!-- Generator: Adobe Illustrator 16.0.4, SVG Export Plug-In . SVG Version: 6.00 Build 0)  -->
<!DOCTYPE svg PUBLIC "-//W3C//DTD SVG 1.1//EN" "http://www.w3.org/Graphics/SVG/1.1/DTD/svg11.dtd">
<svg version="1.1" id="Capa_1" xmlns="http://www.w3.org/2000/svg" xmlns:xlink="http://www.w3.org/1999/xlink" x="0px" y="0px"
	 width="70px" height="70px" viewBox="0 0 70 70" enable-background="new 0 0 70 70" xml:space="preserve">
<g>
	
		<image overflow="visible" opacity="0.2" width="392" height="392" xlink:href="253A45D57B857EB.png"  transform="matrix(0.24 0 0 0.24 -12 -8)">
	</image>
	<g>
		<g>
			<g>
				<g>
					<g>
						<ellipse fill-rule="evenodd" clip-rule="evenodd" fill="#E72565" cx="35.025" cy="35.001" rx="34.975" ry="34.999"/>
					</g>
					<g opacity="0.2">
						<path fill-rule="evenodd" clip-rule="evenodd" fill="#3F2824" d="M35.025,69.603c-19.252,0-34.869-15.565-34.973-34.808
							c0,0.068-0.002,0.138-0.002,0.206C0.05,54.331,15.708,70,35.024,70S70,54.331,70,35.001c0-0.067-0.003-0.132-0.003-0.199
							C69.891,54.039,54.274,69.603,35.025,69.603z"/>
					</g>
					<g opacity="0.2">
						<path fill-rule="evenodd" clip-rule="evenodd" fill="#FFFFFF" d="M34.974,0.399c-19.251,0-34.869,15.565-34.971,34.807
							C0.001,35.137,0,35.068,0,34.999C0,15.67,15.659,0,34.974,0C54.291,0,69.95,15.67,69.95,34.999
							c0,0.066-0.003,0.132-0.003,0.199C69.841,15.961,54.225,0.399,34.974,0.399z"/>
					</g>
				</g>
				<path opacity="0.2" fill="#1D1D1C" d="M67.596,47.512c-0.063-0.068-16.027-16.042-16.097-16.106
					c-0.502-0.55-1.198-0.92-1.979-0.995l-10.81-10.803L28.577,29.764c-0.57,0.555-0.908,1.325-0.908,2.173v3.087l-3.279-3.286
					l-0.253,0.198h-5.708v18.124l-0.198,0.171l19.573,19.66l0.198-0.019l0.003-0.002c0.494-0.042,0.987-0.091,1.474-0.151
					c0.449-0.057,0.894-0.125,1.337-0.199c0.365-0.061,0.729-0.128,1.09-0.199c0.313-0.063,0.625-0.129,0.934-0.198
					c0.144-0.033,0.287-0.068,0.43-0.103c0.066-0.018,0.133-0.033,0.199-0.05c0.065-0.017,0.133-0.031,0.198-0.047
					c0.067-0.018,0.132-0.035,0.199-0.052c0.065-0.019,0.132-0.038,0.198-0.055c0.067-0.019,0.132-0.035,0.199-0.054
					c0.064-0.018,0.132-0.035,0.198-0.055c0.066-0.018,0.132-0.035,0.199-0.055c0.066-0.02,0.132-0.039,0.197-0.059
					c0.067-0.02,0.134-0.04,0.199-0.06c0.066-0.019,0.134-0.039,0.198-0.059c0.067-0.021,0.135-0.04,0.199-0.06
					c0.067-0.022,0.133-0.045,0.198-0.064c0.067-0.021,0.134-0.044,0.2-0.066c0.064-0.02,0.132-0.042,0.199-0.063
					c0.064-0.022,0.132-0.042,0.198-0.064c0.065-0.023,0.132-0.048,0.199-0.071c0.064-0.022,0.132-0.047,0.197-0.069
					c0.067-0.023,0.133-0.047,0.199-0.069c0.036-0.013,0.073-0.026,0.11-0.04c0.009-0.003,0.019-0.006,0.028-0.009
					c0.02-0.008,0.041-0.015,0.061-0.023c0.034-0.011,0.067-0.024,0.102-0.037c0.051-0.02,0.103-0.039,0.153-0.06
					c0.084-0.029,0.166-0.062,0.249-0.093c0.133-0.052,0.268-0.103,0.4-0.155c0.163-0.066,0.325-0.131,0.488-0.199
					c0.154-0.066,0.311-0.131,0.467-0.199c0.15-0.066,0.303-0.132,0.453-0.198c0.146-0.066,0.287-0.133,0.43-0.199
					s0.285-0.132,0.424-0.199c0.135-0.064,0.267-0.132,0.4-0.199c0.133-0.064,0.265-0.131,0.396-0.199
					c0.126-0.063,0.251-0.132,0.377-0.198c0.124-0.065,0.249-0.131,0.374-0.199c0.117-0.065,0.235-0.132,0.354-0.197
					c0.119-0.067,0.236-0.133,0.354-0.199c0.114-0.066,0.225-0.135,0.336-0.199c0.113-0.067,0.225-0.131,0.338-0.199
					c0.106-0.065,0.211-0.134,0.318-0.198c0.106-0.066,0.212-0.133,0.318-0.199c0.104-0.066,0.205-0.132,0.308-0.199
					c0.101-0.064,0.201-0.132,0.302-0.199c0.099-0.066,0.198-0.132,0.296-0.199c0.097-0.064,0.19-0.132,0.286-0.198
					c0.097-0.065,0.192-0.131,0.288-0.199c0.091-0.065,0.183-0.132,0.273-0.197c0.091-0.067,0.183-0.133,0.271-0.199
					c0.089-0.067,0.179-0.134,0.267-0.199c0.086-0.066,0.174-0.134,0.26-0.199c0.086-0.066,0.173-0.132,0.259-0.198
					c0.095-0.074,0.187-0.149,0.278-0.224c0.131-0.104,0.262-0.208,0.389-0.313c0.645-0.532,1.269-1.086,1.872-1.66
					c0.168-0.159,0.333-0.322,0.498-0.485c0.17-0.166,0.335-0.336,0.501-0.507c0.175-0.179,0.347-0.361,0.518-0.543
					c0.182-0.196,0.359-0.393,0.535-0.592c0.191-0.214,0.377-0.431,0.562-0.648c0.2-0.235,0.396-0.475,0.592-0.719
					c0.213-0.267,0.424-0.535,0.629-0.809c0.234-0.312,0.465-0.627,0.689-0.945c0.267-0.381,0.525-0.764,0.778-1.152
					c0.33-0.513,0.647-1.034,0.952-1.564c0.28-0.488,0.548-0.985,0.806-1.488c0.08-0.156,0.156-0.312,0.232-0.47
					c0.067-0.135,0.135-0.271,0.199-0.407c0.067-0.143,0.132-0.285,0.198-0.427c0.068-0.146,0.134-0.294,0.199-0.44
					c0.067-0.151,0.134-0.302,0.198-0.455c0.063-0.146,0.122-0.293,0.183-0.439c0.036-0.09,0.074-0.179,0.109-0.268
					c0.023-0.061,0.05-0.119,0.073-0.18c0.017-0.04,0.03-0.081,0.046-0.121c0.009-0.023,0.018-0.05,0.027-0.074
					c0.006-0.012,0.01-0.025,0.014-0.038c0.002-0.003,0.004-0.007,0.004-0.007C67.646,47.557,67.62,47.535,67.596,47.512z"/>
				<g>
					<path fill="#FBFBFB" d="M18.23,50.231h6.159V31.738H18.23V50.231z M52.111,33.278c0-1.695-1.388-3.082-3.081-3.082h-9.718
						l1.465-7.041l0.045-0.495c0-0.631-0.261-1.218-0.677-1.634l-1.634-1.618L28.379,29.565c-0.57,0.554-0.909,1.326-0.909,2.173
						v15.409c0,1.696,1.385,3.084,3.081,3.084h13.86c1.277,0,2.371-0.771,2.832-1.88l4.649-10.865
						c0.142-0.354,0.219-0.725,0.219-1.126v-2.943l-0.016-0.016L52.111,33.278z"/>
				</g>
			</g>
			
				<radialGradient id="SVGID_1_" cx="-215.6514" cy="202.3633" r="88.7705" gradientTransform="matrix(0.3943 0 0 0.3943 120.0261 -44.7869)" gradientUnits="userSpaceOnUse">
				<stop  offset="0" style="stop-color:#FFFFFF;stop-opacity:0.1"/>
				<stop  offset="1" style="stop-color:#FFFFFF;stop-opacity:0"/>
			</radialGradient>
			<circle fill-rule="evenodd" clip-rule="evenodd" fill="url(#SVGID_1_)" cx="34.999" cy="35" r="35"/>
		</g>
	</g>
</g>
</svg>
