<?xml version="1.0" encoding="utf-8"?>
<!-- Generator: Adobe Illustrator 16.0.4, SVG Export Plug-In . SVG Version: 6.00 Build 0)  -->
<!DOCTYPE svg PUBLIC "-//W3C//DTD SVG 1.1//EN" "http://www.w3.org/Graphics/SVG/1.1/DTD/svg11.dtd">
<svg version="1.1" id="Capa_1" xmlns="http://www.w3.org/2000/svg" xmlns:xlink="http://www.w3.org/1999/xlink" x="0px" y="0px"
	 width="179.441px" height="40px" viewBox="0 0 179.441 40" enable-background="new 0 0 179.441 40" xml:space="preserve">
<g>
	<g>
		<g>
			<path fill="#45C0EE" d="M25.795,32.086c0-0.828-0.672-1.5-1.5-1.5H8.302c-3.75,0-6.802-3.051-6.802-6.801V8.28
				c0-3.75,3.051-6.802,6.802-6.802h23.195c3.751,0,6.802,3.051,6.802,6.802v15.505c0,1.762-0.669,3.427-1.885,4.698l-10.619,8.432
				V32.086z"/>
			<path fill="#010202" d="M31.497,2.979c2.924,0,5.302,2.378,5.302,5.302v15.505c0,1.341-0.497,2.609-1.402,3.592l-8.102,6.432
				v-1.723c0-1.657-1.343-3-3-3H8.302C5.378,29.086,3,26.708,3,23.785V8.28c0-2.923,2.378-5.302,5.302-5.302H31.497 M31.497-0.021
				H8.302C3.717-0.021,0,3.695,0,8.28v15.505c0,4.584,3.717,8.301,8.302,8.301h15.993v7.936l13.129-10.424
				c1.469-1.498,2.375-3.549,2.375-5.812V8.28C39.799,3.695,36.082-0.021,31.497-0.021L31.497-0.021z"/>
		</g>
		<g>
			<path fill="#FFFFFF" d="M29.636,13.225c-0.758,0-1.472,0.188-2.101,0.517c-0.441-3.829-3.689-6.804-7.636-6.804
				c-3.57,0-6.564,2.437-7.431,5.734c-0.654-0.308-1.382-0.484-2.153-0.484c-2.798,0-5.066,2.268-5.066,5.066
				c0,2.797,2.269,5.066,5.066,5.066h19.32c2.511,0,4.547-2.037,4.547-4.548C34.183,15.261,32.146,13.225,29.636,13.225z"/>
		</g>
	</g>
	<g>
		<path fill="#FFFFFF" d="M56.449,22.312c-0.141,1.203-0.585,2.131-1.332,2.785s-1.741,0.98-2.98,0.98
			c-1.344,0-2.421-0.482-3.23-1.445s-1.215-2.253-1.215-3.867v-1.094c0-1.058,0.188-1.987,0.566-2.789s0.913-1.418,1.605-1.848
			s1.495-0.645,2.406-0.645c1.208,0,2.177,0.337,2.906,1.012s1.153,1.608,1.273,2.801h-1.508c-0.13-0.909-0.413-1.567-0.848-1.975
			c-0.435-0.408-1.043-0.611-1.824-0.611c-0.958,0-1.71,0.354-2.254,1.063s-0.816,1.718-0.816,3.025v1.103
			c0,1.235,0.258,2.219,0.773,2.947c0.516,0.73,1.237,1.096,2.164,1.096c0.833,0,1.473-0.189,1.918-0.566s0.741-1.035,0.887-1.973
			H56.449z"/>
		<path fill="#FFFFFF" d="M57.887,21.617c0-0.828,0.163-1.573,0.488-2.234s0.778-1.172,1.359-1.531s1.243-0.539,1.988-0.539
			c1.151,0,2.082,0.398,2.793,1.195s1.066,1.856,1.066,3.18v0.102c0,0.823-0.157,1.562-0.473,2.215
			c-0.315,0.654-0.766,1.162-1.352,1.527s-1.259,0.547-2.02,0.547c-1.146,0-2.074-0.398-2.785-1.195s-1.066-1.852-1.066-3.164
			V21.617z M59.34,21.789c0,0.938,0.218,1.689,0.652,2.258s1.017,0.852,1.746,0.852c0.734,0,1.317-0.287,1.75-0.863
			s0.648-1.382,0.648-2.418c0-0.927-0.22-1.679-0.66-2.254S62.452,18.5,61.723,18.5c-0.714,0-1.289,0.284-1.727,0.852
			S59.34,20.731,59.34,21.789z"/>
		<path fill="#FFFFFF" d="M68.762,17.469l0.047,1.062c0.646-0.812,1.489-1.219,2.531-1.219c1.786,0,2.688,1.008,2.703,3.023v5.586
			h-1.445v-5.594c-0.005-0.609-0.145-1.06-0.418-1.352s-0.699-0.438-1.277-0.438c-0.469,0-0.88,0.125-1.234,0.375
			s-0.63,0.578-0.828,0.984v6.023h-1.445v-8.453H68.762z"/>
		<path fill="#FFFFFF" d="M78.184,15.422v2.047h1.578v1.117h-1.578v5.248c0,0.34,0.07,0.594,0.211,0.764
			c0.141,0.168,0.38,0.254,0.719,0.254c0.167,0,0.396-0.031,0.688-0.094v1.164c-0.38,0.104-0.75,0.156-1.109,0.156
			c-0.646,0-1.133-0.195-1.461-0.586s-0.492-0.945-0.492-1.664v-5.242h-1.539v-1.117h1.539v-2.047H78.184z"/>
		<path fill="#FFFFFF" d="M85.535,18.766c-0.219-0.036-0.456-0.055-0.711-0.055c-0.948,0-1.591,0.403-1.93,1.211v6h-1.445v-8.453
			h1.406l0.023,0.977c0.474-0.755,1.146-1.133,2.016-1.133c0.281,0,0.495,0.036,0.641,0.109V18.766z"/>
		<path fill="#FFFFFF" d="M86.324,21.617c0-0.828,0.163-1.573,0.488-2.234s0.778-1.172,1.359-1.531s1.243-0.539,1.988-0.539
			c1.151,0,2.082,0.398,2.793,1.195s1.066,1.856,1.066,3.18v0.102c0,0.823-0.157,1.562-0.473,2.215
			c-0.315,0.654-0.766,1.162-1.352,1.527s-1.259,0.547-2.02,0.547c-1.146,0-2.074-0.398-2.785-1.195s-1.066-1.852-1.066-3.164
			V21.617z M87.777,21.789c0,0.938,0.218,1.689,0.652,2.258s1.017,0.852,1.746,0.852c0.734,0,1.317-0.287,1.75-0.863
			s0.648-1.382,0.648-2.418c0-0.927-0.22-1.679-0.66-2.254S90.89,18.5,90.16,18.5c-0.714,0-1.289,0.284-1.727,0.852
			S87.777,20.731,87.777,21.789z"/>
		<path fill="#FFFFFF" d="M97.402,25.922h-1.445v-12h1.445V25.922z"/>
		<path fill="#FFFFFF" d="M103.324,21.625c0-1.297,0.308-2.34,0.922-3.129s1.419-1.184,2.414-1.184c0.989,0,1.773,0.339,2.352,1.016
			v-4.406h1.445v12h-1.328l-0.07-0.906c-0.578,0.709-1.383,1.062-2.414,1.062c-0.979,0-1.777-0.4-2.395-1.203
			s-0.926-1.849-0.926-3.141V21.625z M104.77,21.789c0,0.958,0.198,1.708,0.594,2.25c0.396,0.541,0.942,0.812,1.641,0.812
			c0.917,0,1.586-0.412,2.008-1.234v-3.883c-0.433-0.797-1.097-1.195-1.992-1.195c-0.708,0-1.261,0.273-1.656,0.82
			S104.77,20.716,104.77,21.789z"/>
		<path fill="#FFFFFF" d="M116.207,26.078c-1.146,0-2.078-0.377-2.797-1.129s-1.078-1.759-1.078-3.02v-0.266
			c0-0.839,0.16-1.587,0.48-2.246s0.769-1.175,1.344-1.547s1.199-0.559,1.871-0.559c1.099,0,1.953,0.362,2.562,1.086
			s0.914,1.761,0.914,3.109v0.602h-5.727c0.021,0.833,0.265,1.506,0.73,2.02s1.059,0.77,1.777,0.77c0.511,0,0.942-0.104,1.297-0.312
			s0.664-0.484,0.93-0.828l0.883,0.688C118.687,25.533,117.624,26.078,116.207,26.078z M116.027,18.5
			c-0.583,0-1.073,0.212-1.469,0.637s-0.641,1.02-0.734,1.785h4.234v-0.109c-0.042-0.734-0.239-1.304-0.594-1.707
			S116.632,18.5,116.027,18.5z"/>
		<path fill="#FFFFFF" d="M122.746,25.922h-1.445v-12h1.445V25.922z"/>
		<path fill="#FFFFFF" d="M136.793,15.773h-3.656v10.148h-1.492V15.773h-3.648v-1.227h8.797V15.773z"/>
		<path fill="#FFFFFF" d="M142.59,25.922c-0.083-0.166-0.151-0.463-0.203-0.891c-0.672,0.697-1.474,1.047-2.406,1.047
			c-0.833,0-1.517-0.236-2.051-0.707s-0.801-1.068-0.801-1.793c0-0.88,0.335-1.563,1.004-2.051s1.61-0.73,2.824-0.73h1.406v-0.664
			c0-0.505-0.151-0.907-0.453-1.207s-0.747-0.449-1.336-0.449c-0.516,0-0.948,0.13-1.297,0.391s-0.523,0.575-0.523,0.945h-1.453
			c0-0.422,0.149-0.829,0.449-1.223s0.706-0.704,1.219-0.934s1.077-0.344,1.691-0.344c0.974,0,1.737,0.243,2.289,0.73
			s0.839,1.157,0.859,2.012v3.891c0,0.775,0.099,1.393,0.297,1.852v0.125H142.59z M140.191,24.82c0.453,0,0.883-0.117,1.289-0.352
			s0.7-0.539,0.883-0.914V21.82h-1.133c-1.771,0-2.656,0.519-2.656,1.555c0,0.453,0.151,0.807,0.453,1.062
			S139.718,24.82,140.191,24.82z"/>
		<path fill="#FFFFFF" d="M153.23,21.789c0,1.292-0.297,2.33-0.891,3.113s-1.391,1.176-2.391,1.176
			c-1.067,0-1.894-0.377-2.477-1.133l-0.07,0.977h-1.328v-12h1.445v4.477c0.583-0.724,1.388-1.086,2.414-1.086
			s1.832,0.388,2.418,1.164s0.879,1.839,0.879,3.188V21.789z M151.785,21.625c0-0.984-0.19-1.745-0.57-2.281
			s-0.927-0.805-1.641-0.805c-0.953,0-1.638,0.442-2.055,1.328v3.656c0.442,0.885,1.133,1.328,2.07,1.328
			c0.692,0,1.231-0.268,1.617-0.805S151.785,22.703,151.785,21.625z"/>
		<path fill="#FFFFFF" d="M160.27,25.922c-0.083-0.166-0.151-0.463-0.203-0.891c-0.672,0.697-1.474,1.047-2.406,1.047
			c-0.833,0-1.517-0.236-2.051-0.707s-0.801-1.068-0.801-1.793c0-0.88,0.335-1.563,1.004-2.051s1.61-0.73,2.824-0.73h1.406v-0.664
			c0-0.505-0.151-0.907-0.453-1.207s-0.747-0.449-1.336-0.449c-0.516,0-0.948,0.13-1.297,0.391s-0.523,0.575-0.523,0.945h-1.453
			c0-0.422,0.149-0.829,0.449-1.223s0.706-0.704,1.219-0.934s1.077-0.344,1.691-0.344c0.974,0,1.737,0.243,2.289,0.73
			s0.839,1.157,0.859,2.012v3.891c0,0.775,0.099,1.393,0.297,1.852v0.125H160.27z M157.871,24.82c0.453,0,0.883-0.117,1.289-0.352
			s0.7-0.539,0.883-0.914V21.82h-1.133c-1.771,0-2.656,0.519-2.656,1.555c0,0.453,0.151,0.807,0.453,1.062
			S157.397,24.82,157.871,24.82z"/>
		<path fill="#FFFFFF" d="M167.145,24.898c0.516,0,0.966-0.156,1.352-0.469s0.599-0.703,0.641-1.172h1.367
			c-0.026,0.484-0.192,0.945-0.5,1.383s-0.718,0.787-1.23,1.047s-1.056,0.391-1.629,0.391c-1.151,0-2.066-0.385-2.746-1.152
			s-1.02-1.819-1.02-3.152v-0.242c0-0.823,0.151-1.555,0.453-2.195s0.735-1.138,1.301-1.492s1.233-0.531,2.004-0.531
			c0.948,0,1.735,0.284,2.363,0.852s0.962,1.305,1.004,2.211h-1.367c-0.042-0.547-0.249-0.996-0.621-1.348s-0.832-0.527-1.379-0.527
			c-0.734,0-1.304,0.265-1.707,0.793s-0.605,1.293-0.605,2.293v0.273c0,0.974,0.2,1.724,0.602,2.25
			C165.827,24.635,166.399,24.898,167.145,24.898z"/>
		<path fill="#FFFFFF" d="M171.746,21.617c0-0.828,0.163-1.573,0.488-2.234s0.778-1.172,1.359-1.531s1.243-0.539,1.988-0.539
			c1.151,0,2.082,0.398,2.793,1.195s1.066,1.856,1.066,3.18v0.102c0,0.823-0.157,1.562-0.473,2.215
			c-0.315,0.654-0.766,1.162-1.352,1.527s-1.259,0.547-2.02,0.547c-1.146,0-2.074-0.398-2.785-1.195s-1.066-1.852-1.066-3.164
			V21.617z M173.199,21.789c0,0.938,0.218,1.689,0.652,2.258s1.017,0.852,1.746,0.852c0.734,0,1.317-0.287,1.75-0.863
			s0.648-1.382,0.648-2.418c0-0.927-0.22-1.679-0.66-2.254s-1.024-0.863-1.754-0.863c-0.714,0-1.289,0.284-1.727,0.852
			S173.199,20.731,173.199,21.789z"/>
	</g>
</g>
</svg>
