<?xml version="1.0" encoding="utf-8"?>
<!-- Generator: Adobe Illustrator 16.0.4, SVG Export Plug-In . SVG Version: 6.00 Build 0)  -->
<!DOCTYPE svg PUBLIC "-//W3C//DTD SVG 1.1//EN" "http://www.w3.org/Graphics/SVG/1.1/DTD/svg11.dtd">
<svg version="1.1" id="Capa_1" xmlns="http://www.w3.org/2000/svg" xmlns:xlink="http://www.w3.org/1999/xlink" x="0px" y="0px"
	 width="48px" height="48px" viewBox="0 0 48 48" enable-background="new 0 0 48 48" xml:space="preserve">
<g>
	<g>
		<g>
			<g>
				<ellipse fill-rule="evenodd" clip-rule="evenodd" fill="#E72765" cx="24.017" cy="24.001" rx="23.983" ry="23.999"/>
			</g>
			<g opacity="0.2">
				<path fill-rule="evenodd" clip-rule="evenodd" fill="#402823" d="M24.018,47.727c-13.202,0-23.91-10.674-23.981-23.868
					c0,0.048-0.001,0.095-0.001,0.143C0.035,37.254,10.772,48,24.018,48C37.263,48,48,37.254,48,24.001
					c0-0.046-0.001-0.091-0.001-0.137C47.925,37.055,37.218,47.727,24.018,47.727z"/>
			</g>
			<g opacity="0.2">
				<path fill-rule="evenodd" clip-rule="evenodd" fill="#FFFFFF" d="M23.983,0.272c-13.202,0-23.911,10.674-23.981,23.868
					C0.002,24.094,0,24.047,0,23.999C0,10.744,10.737,0,23.983,0s23.983,10.744,23.983,23.999c0,0.046-0.002,0.091-0.002,0.137
					C47.891,10.944,37.183,0.272,23.983,0.272z"/>
			</g>
		</g>
		<g>
			<path fill="none" d="M27.42,47.713c-0.048-0.043-0.093-0.088-0.136-0.136c-0.048-0.044-0.094-0.089-0.137-0.136
				c-0.047-0.044-0.093-0.09-0.137-0.137c-0.047-0.043-0.093-0.089-0.136-0.137c-0.048-0.043-0.093-0.088-0.137-0.137
				c-0.047-0.043-0.093-0.088-0.136-0.136c-0.048-0.044-0.094-0.089-0.137-0.136c-0.047-0.045-0.093-0.09-0.137-0.137
				c-0.047-0.044-0.092-0.09-0.136-0.137c-0.048-0.043-0.093-0.089-0.136-0.137c-0.048-0.043-0.094-0.088-0.137-0.137
				c-0.047-0.043-0.093-0.088-0.137-0.136c-0.047-0.044-0.092-0.089-0.136-0.136c-0.048-0.044-0.093-0.09-0.136-0.137
				c-0.048-0.043-0.094-0.089-0.137-0.137c-0.047-0.043-0.093-0.088-0.137-0.137c-0.047-0.043-0.093-0.088-0.136-0.136
				c-0.048-0.044-0.093-0.089-0.136-0.136c-0.048-0.045-0.094-0.09-0.137-0.137c-0.048-0.044-0.093-0.09-0.137-0.137
				c-0.047-0.043-0.093-0.089-0.136-0.137c-0.047-0.043-0.093-0.088-0.136-0.137c-0.047-0.043-0.093-0.088-0.136-0.136
				c-0.047-0.044-0.093-0.089-0.136-0.136c-0.047-0.044-0.093-0.09-0.136-0.137c-0.047-0.043-0.093-0.089-0.136-0.137
				c-0.047-0.043-0.093-0.088-0.136-0.137c-0.047-0.043-0.093-0.088-0.136-0.136c-0.047-0.044-0.093-0.089-0.136-0.136
				c-0.047-0.045-0.093-0.09-0.136-0.137c-0.047-0.044-0.093-0.09-0.136-0.137c-0.047-0.043-0.093-0.089-0.136-0.137
				c-0.047-0.043-0.093-0.088-0.137-0.137c-0.047-0.043-0.093-0.088-0.136-0.135c-0.048-0.045-0.093-0.09-0.137-0.137
				c-0.047-0.044-0.093-0.09-0.136-0.137c-0.047-0.043-0.093-0.089-0.136-0.137c-0.047-0.043-0.093-0.088-0.136-0.137
				c-0.047-0.043-0.093-0.088-0.136-0.136c-0.047-0.044-0.093-0.089-0.136-0.136c-0.047-0.045-0.093-0.09-0.136-0.137
				c-0.047-0.044-0.093-0.09-0.136-0.137c-0.047-0.043-0.093-0.089-0.136-0.137c-0.047-0.043-0.093-0.088-0.136-0.136
				c-0.047-0.044-0.093-0.089-0.136-0.136c-0.047-0.045-0.093-0.09-0.136-0.137c-0.047-0.044-0.093-0.09-0.136-0.137
				c-0.048-0.043-0.093-0.089-0.137-0.137c-0.047-0.043-0.093-0.088-0.136-0.137c-0.047-0.043-0.093-0.088-0.136-0.136
				c-0.047-0.044-0.093-0.089-0.136-0.136c-0.047-0.044-0.093-0.09-0.136-0.137c-0.047-0.043-0.093-0.089-0.136-0.137
				c-0.047-0.043-0.093-0.088-0.136-0.137c-0.047-0.043-0.093-0.088-0.136-0.136c-0.047-0.044-0.093-0.089-0.136-0.136
				c-0.047-0.045-0.093-0.09-0.136-0.137c-0.047-0.044-0.093-0.09-0.136-0.137c-0.047-0.043-0.093-0.089-0.136-0.137
				c-0.047-0.043-0.093-0.088-0.136-0.137c-0.047-0.043-0.093-0.088-0.137-0.136c-0.047-0.044-0.093-0.089-0.136-0.136
				c-0.048-0.044-0.093-0.09-0.137-0.137c-0.047-0.043-0.093-0.089-0.136-0.137c-0.047-0.043-0.093-0.088-0.136-0.137
				c-0.047-0.043-0.093-0.088-0.136-0.136c-0.047-0.044-0.093-0.089-0.136-0.136c-0.047-0.045-0.093-0.09-0.136-0.137
				c-0.047-0.044-0.093-0.09-0.136-0.137c-0.047-0.043-0.093-0.089-0.136-0.137c-0.047-0.043-0.093-0.088-0.136-0.137
				c-0.047-0.043-0.093-0.088-0.136-0.136c-0.047-0.044-0.093-0.089-0.136-0.136c-0.047-0.044-0.093-0.09-0.136-0.137
				c-0.047-0.043-0.093-0.089-0.136-0.137c-0.048-0.043-0.093-0.088-0.137-0.137c-0.047-0.043-0.093-0.088-0.136-0.136
				c-0.047-0.044-0.093-0.089-0.136-0.136c-0.047-0.045-0.093-0.09-0.136-0.137c-0.047-0.044-0.093-0.09-0.136-0.137
				c-0.047-0.043-0.093-0.089-0.136-0.137c-0.047-0.043-0.093-0.088-0.136-0.137c-0.047-0.043-0.093-0.088-0.136-0.135
				c-0.047-0.045-0.093-0.09-0.136-0.137c-0.047-0.044-0.093-0.09-0.136-0.137c-0.047-0.043-0.093-0.089-0.136-0.137
				c-0.047-0.043-0.093-0.088-0.136-0.137c-0.047-0.043-0.093-0.088-0.136-0.136c-0.048-0.044-0.093-0.089-0.137-0.136
				c-0.047-0.045-0.093-0.09-0.136-0.137c-0.048-0.044-0.093-0.09-0.137-0.137c-0.047-0.043-0.093-0.089-0.136-0.137
				c-0.047-0.043-0.093-0.088-0.136-0.137c-0.047-0.043-0.093-0.088-0.136-0.135c-0.047-0.045-0.093-0.09-0.136-0.137
				c-0.047-0.044-0.093-0.09-0.136-0.137c-0.047-0.043-0.093-0.089-0.136-0.137c-0.047-0.043-0.093-0.088-0.136-0.137
				c-0.431-0.394-0.703-0.959-0.703-1.59V15.512c0-1.191,0.965-2.156,2.155-2.156h17.237c0.629,0,1.194,0.271,1.59,0.703
				c0.047,0.043,0.092,0.089,0.136,0.137c0.048,0.043,0.093,0.089,0.136,0.136c0.048,0.044,0.094,0.089,0.137,0.137
				c0.047,0.043,0.093,0.089,0.137,0.136c0.047,0.044,0.092,0.09,0.136,0.137c0.048,0.044,0.093,0.089,0.136,0.137
				c0.048,0.043,0.094,0.089,0.137,0.136c0.048,0.044,0.093,0.089,0.137,0.137c0.047,0.043,0.093,0.089,0.136,0.137
				c0.048,0.043,0.093,0.089,0.137,0.136c0.048,0.044,0.093,0.089,0.136,0.137c0.048,0.043,0.094,0.089,0.137,0.137
				c0.047,0.043,0.093,0.089,0.137,0.136c0.047,0.044,0.092,0.089,0.136,0.137c0.048,0.043,0.093,0.089,0.136,0.136
				c0.048,0.044,0.094,0.09,0.137,0.137c0.047,0.044,0.093,0.089,0.137,0.137c0.047,0.043,0.092,0.089,0.136,0.136
				c0.048,0.044,0.093,0.089,0.136,0.137c0.048,0.043,0.094,0.089,0.137,0.137c0.048,0.043,0.093,0.089,0.137,0.136
				c0.047,0.044,0.093,0.089,0.136,0.137c0.048,0.043,0.093,0.089,0.137,0.137c0.048,0.043,0.093,0.089,0.136,0.136
				c0.048,0.044,0.094,0.089,0.137,0.137c0.047,0.043,0.093,0.089,0.137,0.136c0.047,0.044,0.092,0.09,0.136,0.137
				c0.048,0.044,0.093,0.089,0.136,0.137c0.048,0.043,0.094,0.089,0.137,0.136c0.047,0.044,0.093,0.089,0.137,0.137
				c0.047,0.043,0.092,0.089,0.136,0.137c0.048,0.043,0.093,0.089,0.136,0.136c0.048,0.044,0.094,0.089,0.137,0.137
				c0.048,0.043,0.093,0.089,0.137,0.136c0.047,0.044,0.093,0.09,0.136,0.137c0.048,0.044,0.093,0.089,0.137,0.137
				c0.048,0.043,0.093,0.089,0.136,0.136c0.048,0.044,0.094,0.089,0.137,0.137c0.047,0.043,0.093,0.089,0.137,0.137
				c0.047,0.043,0.092,0.089,0.136,0.136c0.048,0.044,0.093,0.089,0.136,0.137c0.048,0.043,0.094,0.089,0.137,0.137
				c0.047,0.043,0.093,0.089,0.137,0.136c0.047,0.044,0.092,0.089,0.136,0.137c0.048,0.043,0.093,0.089,0.136,0.136
				c0.048,0.044,0.094,0.09,0.137,0.137c0.048,0.044,0.093,0.089,0.137,0.137c0.047,0.043,0.093,0.089,0.136,0.136
				c0.048,0.044,0.093,0.089,0.136,0.137c0.049,0.043,0.094,0.089,0.137,0.137c0.048,0.043,0.094,0.089,0.137,0.136
				c0.047,0.044,0.093,0.089,0.137,0.137c0.047,0.043,0.092,0.089,0.136,0.137c0.048,0.043,0.093,0.089,0.136,0.136
				c0.048,0.044,0.094,0.089,0.137,0.137c0.047,0.043,0.093,0.089,0.137,0.136c0.047,0.044,0.092,0.09,0.136,0.137
				c0.048,0.044,0.093,0.089,0.136,0.137c0.048,0.043,0.094,0.089,0.137,0.136c0.047,0.044,0.093,0.089,0.137,0.137
				c0.047,0.043,0.092,0.089,0.136,0.137c0.048,0.043,0.093,0.089,0.136,0.136c0.049,0.044,0.094,0.089,0.137,0.137
				c0.048,0.043,0.094,0.089,0.137,0.136c0.047,0.044,0.093,0.09,0.136,0.137c0.048,0.044,0.093,0.089,0.137,0.137
				c0.048,0.043,0.093,0.089,0.136,0.136c0.048,0.044,0.094,0.089,0.137,0.137c0.047,0.043,0.093,0.089,0.137,0.137
				c0.047,0.043,0.092,0.089,0.136,0.136c0.048,0.044,0.093,0.089,0.136,0.137c0.048,0.043,0.094,0.089,0.137,0.137
				c0.047,0.043,0.093,0.089,0.137,0.136c0.047,0.044,0.092,0.089,0.136,0.137c0.048,0.043,0.093,0.089,0.136,0.136
				c0.048,0.044,0.094,0.09,0.137,0.137c0.048,0.044,0.093,0.089,0.137,0.137c0.047,0.043,0.093,0.089,0.136,0.136
				c0.048,0.044,0.093,0.089,0.137,0.137c0.048,0.043,0.093,0.089,0.136,0.137c0.048,0.043,0.094,0.089,0.137,0.136
				c0.047,0.044,0.093,0.089,0.137,0.137c0.047,0.043,0.092,0.089,0.136,0.137c0.048,0.043,0.093,0.089,0.136,0.136
				c0.048,0.044,0.094,0.089,0.137,0.136c0.047,0.044,0.093,0.09,0.137,0.137c0.047,0.043,0.092,0.09,0.136,0.137
				c0.048,0.043,0.093,0.088,0.136,0.137c0.048,0.043,0.094,0.088,0.137,0.136c0.048,0.044,0.093,0.089,0.137,0.136
				c0.047,0.044,0.093,0.09,0.136,0.137c0.048,0.043,0.093,0.09,0.137,0.137c0.048,0.043,0.093,0.089,0.136,0.137
				c0.048,0.043,0.094,0.088,0.137,0.136c0.047,0.044,0.093,0.089,0.137,0.136c0.047,0.045,0.092,0.09,0.136,0.137
				c0.048,0.044,0.093,0.09,0.136,0.137c0.048,0.043,0.094,0.089,0.137,0.137c0.018,0.016,0.033,0.034,0.051,0.051
				C47.913,26.339,48,25.18,48,24.001c0-13.255-10.737-24-23.982-24c-13.246,0-23.983,10.745-23.983,24
				C0.035,37.254,10.772,48,24.018,48c1.169,0,2.317-0.086,3.441-0.248C27.446,47.739,27.433,47.727,27.42,47.713z"/>
			<path opacity="0.2" fill="#1E1E1C" d="M47.562,27.285c-0.043-0.047-0.088-0.093-0.136-0.137
				c-0.044-0.047-0.089-0.092-0.136-0.137c-0.044-0.047-0.09-0.092-0.137-0.136c-0.043-0.048-0.089-0.093-0.137-0.136
				c-0.043-0.048-0.088-0.094-0.136-0.137c-0.044-0.047-0.089-0.094-0.137-0.137c-0.043-0.047-0.089-0.093-0.136-0.137
				c-0.044-0.047-0.089-0.092-0.137-0.136c-0.043-0.048-0.089-0.093-0.137-0.136c-0.043-0.049-0.088-0.094-0.136-0.137
				c-0.044-0.047-0.089-0.094-0.136-0.137c-0.044-0.047-0.09-0.093-0.137-0.137c-0.043-0.047-0.089-0.092-0.137-0.136
				c-0.043-0.047-0.088-0.093-0.136-0.136c-0.044-0.048-0.089-0.094-0.136-0.137c-0.044-0.048-0.09-0.093-0.137-0.137
				c-0.043-0.047-0.089-0.093-0.137-0.136c-0.043-0.048-0.088-0.094-0.136-0.137c-0.044-0.048-0.089-0.093-0.137-0.137
				c-0.043-0.047-0.089-0.093-0.136-0.136c-0.044-0.048-0.089-0.093-0.137-0.137c-0.043-0.047-0.089-0.093-0.137-0.137
				c-0.043-0.047-0.088-0.093-0.136-0.136c-0.044-0.048-0.089-0.093-0.136-0.137c-0.044-0.047-0.09-0.093-0.137-0.136
				c-0.043-0.048-0.089-0.094-0.137-0.137c-0.043-0.048-0.088-0.093-0.136-0.137c-0.044-0.047-0.089-0.093-0.136-0.136
				c-0.044-0.048-0.09-0.094-0.137-0.137c-0.043-0.048-0.089-0.093-0.137-0.137c-0.043-0.047-0.088-0.093-0.136-0.136
				c-0.044-0.048-0.089-0.093-0.137-0.137c-0.043-0.047-0.089-0.093-0.136-0.137c-0.043-0.047-0.089-0.093-0.137-0.136
				c-0.043-0.048-0.088-0.093-0.137-0.137c-0.043-0.047-0.088-0.093-0.136-0.136c-0.044-0.048-0.089-0.094-0.136-0.137
				c-0.044-0.048-0.09-0.093-0.137-0.137c-0.043-0.047-0.089-0.093-0.137-0.136c-0.043-0.048-0.088-0.093-0.136-0.137
				c-0.044-0.047-0.089-0.093-0.136-0.137c-0.044-0.047-0.09-0.093-0.137-0.136c-0.043-0.048-0.089-0.093-0.137-0.137
				c-0.043-0.047-0.088-0.093-0.136-0.136c-0.044-0.048-0.089-0.094-0.136-0.137c-0.044-0.048-0.09-0.093-0.137-0.137
				c-0.043-0.047-0.089-0.093-0.137-0.136c-0.043-0.048-0.088-0.094-0.137-0.137c-0.043-0.048-0.088-0.093-0.136-0.137
				c-0.043-0.047-0.089-0.093-0.136-0.136c-0.044-0.048-0.089-0.093-0.137-0.137c-0.043-0.047-0.089-0.093-0.137-0.137
				c-0.043-0.047-0.088-0.093-0.136-0.136c-0.044-0.048-0.089-0.093-0.136-0.137c-0.044-0.047-0.09-0.093-0.137-0.136
				c-0.043-0.048-0.089-0.094-0.137-0.137c-0.043-0.048-0.088-0.093-0.136-0.137c-0.044-0.047-0.089-0.093-0.136-0.136
				c-0.044-0.048-0.09-0.094-0.137-0.137c-0.043-0.048-0.089-0.093-0.137-0.137c-0.043-0.047-0.088-0.093-0.136-0.136
				c-0.044-0.048-0.089-0.093-0.137-0.137c-0.043-0.047-0.089-0.093-0.136-0.137c-0.044-0.047-0.089-0.093-0.137-0.136
				c-0.043-0.048-0.089-0.093-0.137-0.137c-0.043-0.047-0.088-0.093-0.136-0.136c-0.044-0.048-0.089-0.094-0.136-0.137
				c-0.044-0.048-0.09-0.093-0.137-0.137c-0.043-0.047-0.089-0.093-0.137-0.136c-0.043-0.048-0.088-0.093-0.136-0.137
				c-0.044-0.047-0.089-0.093-0.136-0.137c-0.044-0.047-0.09-0.093-0.137-0.136c-0.043-0.048-0.089-0.093-0.137-0.137
				c-0.043-0.047-0.088-0.093-0.136-0.136c-0.044-0.048-0.089-0.094-0.137-0.137c-0.043-0.048-0.089-0.093-0.136-0.137
				c-0.044-0.047-0.089-0.093-0.137-0.136c-0.043-0.048-0.089-0.094-0.137-0.137c-0.043-0.048-0.088-0.093-0.136-0.137
				c-0.044-0.047-0.089-0.093-0.136-0.136c-0.044-0.048-0.09-0.093-0.137-0.137c-0.043-0.047-0.089-0.093-0.137-0.137
				c-0.043-0.047-0.088-0.093-0.136-0.136c-0.044-0.048-0.089-0.093-0.136-0.137c-0.044-0.047-0.09-0.093-0.137-0.136
				c-0.043-0.048-0.089-0.094-0.137-0.137c-0.043-0.048-0.088-0.093-0.136-0.137c-0.044-0.047-0.089-0.093-0.137-0.136
				c-0.043-0.048-0.089-0.094-0.136-0.137c-0.044-0.048-0.089-0.093-0.137-0.137c-0.043-0.047-0.089-0.093-0.137-0.136
				c-0.043-0.048-0.088-0.093-0.136-0.137c-0.044-0.047-0.089-0.093-0.136-0.137c-0.044-0.047-0.09-0.093-0.137-0.136
				c-0.043-0.048-0.089-0.093-0.137-0.137c-0.043-0.047-0.088-0.093-0.136-0.136c-0.044-0.048-0.089-0.094-0.136-0.137
				c-0.396-0.432-0.961-0.703-1.59-0.703H15.518c-1.19,0-2.155,0.965-2.155,2.156V32.76c0,0.631,0.272,1.196,0.703,1.59
				c0.043,0.049,0.089,0.094,0.136,0.137c0.043,0.048,0.089,0.094,0.136,0.137c0.043,0.047,0.089,0.093,0.136,0.137
				c0.043,0.047,0.089,0.092,0.136,0.137c0.043,0.047,0.089,0.092,0.136,0.135c0.043,0.049,0.089,0.094,0.136,0.137
				c0.043,0.048,0.089,0.094,0.136,0.137c0.043,0.047,0.089,0.093,0.137,0.137c0.043,0.047,0.089,0.092,0.136,0.137
				c0.043,0.047,0.089,0.092,0.137,0.136c0.043,0.048,0.089,0.093,0.136,0.136c0.043,0.049,0.089,0.094,0.136,0.137
				c0.043,0.048,0.089,0.094,0.136,0.137c0.043,0.047,0.089,0.093,0.136,0.137c0.043,0.047,0.089,0.092,0.136,0.137
				c0.043,0.047,0.089,0.092,0.136,0.135c0.043,0.049,0.089,0.094,0.136,0.137c0.043,0.048,0.089,0.094,0.136,0.137
				c0.043,0.047,0.089,0.093,0.136,0.137c0.043,0.047,0.089,0.092,0.136,0.137c0.043,0.047,0.089,0.092,0.136,0.136
				c0.043,0.048,0.089,0.093,0.136,0.136c0.043,0.049,0.089,0.094,0.137,0.137c0.043,0.048,0.089,0.094,0.136,0.137
				c0.043,0.047,0.089,0.093,0.136,0.137c0.043,0.047,0.089,0.092,0.136,0.136c0.043,0.048,0.089,0.093,0.136,0.136
				c0.043,0.049,0.089,0.094,0.136,0.137c0.043,0.048,0.089,0.094,0.136,0.137c0.043,0.047,0.089,0.093,0.136,0.137
				c0.043,0.047,0.089,0.092,0.136,0.137c0.043,0.047,0.089,0.092,0.136,0.136c0.043,0.048,0.089,0.093,0.136,0.136
				c0.043,0.049,0.089,0.094,0.136,0.137c0.043,0.048,0.089,0.094,0.136,0.137c0.043,0.047,0.089,0.093,0.137,0.137
				c0.043,0.047,0.089,0.092,0.136,0.136c0.043,0.048,0.089,0.093,0.137,0.136c0.043,0.049,0.089,0.094,0.136,0.137
				c0.043,0.048,0.089,0.094,0.136,0.137c0.043,0.047,0.089,0.093,0.136,0.137c0.043,0.047,0.089,0.092,0.136,0.137
				c0.043,0.047,0.089,0.092,0.136,0.136c0.043,0.048,0.089,0.093,0.136,0.136c0.043,0.049,0.089,0.094,0.136,0.137
				c0.043,0.048,0.089,0.094,0.136,0.137c0.043,0.047,0.089,0.093,0.136,0.137c0.043,0.047,0.089,0.092,0.136,0.136
				c0.043,0.048,0.089,0.093,0.136,0.136c0.043,0.049,0.089,0.094,0.136,0.137c0.043,0.048,0.089,0.094,0.137,0.137
				c0.043,0.047,0.089,0.093,0.136,0.137c0.043,0.047,0.089,0.092,0.136,0.137c0.043,0.047,0.089,0.092,0.136,0.136
				c0.043,0.048,0.089,0.093,0.136,0.136c0.043,0.048,0.089,0.094,0.136,0.137c0.043,0.047,0.089,0.093,0.136,0.137
				c0.043,0.047,0.089,0.092,0.136,0.137c0.043,0.047,0.089,0.092,0.136,0.136c0.043,0.048,0.089,0.093,0.136,0.136
				c0.043,0.049,0.089,0.094,0.136,0.137c0.043,0.048,0.089,0.094,0.136,0.137c0.043,0.047,0.089,0.093,0.136,0.137
				c0.043,0.047,0.089,0.092,0.137,0.137c0.043,0.047,0.089,0.092,0.136,0.135c0.043,0.049,0.089,0.094,0.137,0.137
				c0.043,0.048,0.089,0.094,0.136,0.137c0.043,0.047,0.089,0.093,0.136,0.137c0.043,0.047,0.089,0.092,0.136,0.137
				c0.043,0.047,0.089,0.092,0.136,0.136c0.043,0.048,0.089,0.093,0.136,0.136c0.043,0.049,0.089,0.094,0.136,0.137
				c0.043,0.048,0.089,0.094,0.136,0.137c0.043,0.047,0.089,0.093,0.136,0.137c0.043,0.047,0.089,0.092,0.136,0.136
				c0.043,0.048,0.089,0.093,0.136,0.136c0.043,0.049,0.089,0.094,0.136,0.137c0.043,0.048,0.089,0.094,0.136,0.137
				c0.043,0.047,0.089,0.093,0.137,0.137c0.043,0.047,0.089,0.092,0.137,0.137c0.043,0.047,0.088,0.092,0.136,0.136
				c0.043,0.048,0.089,0.093,0.136,0.136c0.044,0.049,0.09,0.094,0.137,0.137c0.043,0.048,0.089,0.094,0.137,0.137
				c0.043,0.047,0.088,0.093,0.136,0.137c0.044,0.047,0.089,0.092,0.136,0.136c0.044,0.048,0.09,0.093,0.137,0.136
				c0.043,0.049,0.089,0.094,0.137,0.137c0.043,0.048,0.088,0.094,0.136,0.137c0.044,0.047,0.089,0.093,0.136,0.137
				c0.044,0.047,0.09,0.092,0.137,0.137c0.043,0.047,0.089,0.092,0.137,0.136c0.043,0.048,0.089,0.093,0.136,0.136
				c0.044,0.049,0.089,0.094,0.137,0.137c0.043,0.048,0.089,0.094,0.136,0.137c0.044,0.047,0.09,0.093,0.137,0.137
				c0.043,0.047,0.089,0.092,0.137,0.136c0.043,0.048,0.088,0.093,0.136,0.136c0.013,0.014,0.026,0.026,0.039,0.039
				c10.481-1.507,18.771-9.795,20.29-20.279c-0.018-0.017-0.033-0.035-0.051-0.051C47.655,27.374,47.609,27.328,47.562,27.285z"/>
		</g>
		<g>
			<path fill="#FCFBFB" d="M30.151,21.121c-0.074,4.98-3.254,8.387-8.005,8.604c-1.96,0.086-3.371-0.539-4.61-1.326
				c1.444,0.227,3.232-0.346,4.202-1.165c-1.422-0.151-2.251-0.874-2.651-2.026c0.41,0.064,0.842,0.044,1.229-0.032
				c-1.281-0.432-2.198-1.229-2.241-2.889c0.355,0.172,0.732,0.323,1.229,0.355c-0.959-0.55-1.66-2.545-0.852-3.859
				c1.422,1.562,3.135,2.835,5.947,3.008c-0.711-3.02,3.286-4.657,4.957-2.642c0.71-0.13,1.282-0.388,1.841-0.69
				c-0.225,0.69-0.667,1.197-1.205,1.585c0.58-0.075,1.108-0.216,1.551-0.441C31.272,20.173,30.669,20.69,30.151,21.121
				 M32.619,13.219H15.382c-1.19,0-2.155,0.966-2.155,2.156v17.249c0,1.19,0.965,2.157,2.155,2.157h17.237
				c1.19,0,2.154-0.967,2.154-2.157V15.375C34.773,14.179,33.804,13.219,32.619,13.219z"/>
		</g>
	</g>
	
		<radialGradient id="SVGID_1_" cx="17545.875" cy="28047.1875" r="411.5703" gradientTransform="matrix(0.0583 0 0 0.0583 -999.1451 -1611.536)" gradientUnits="userSpaceOnUse">
		<stop  offset="0" style="stop-color:#FFFFFF;stop-opacity:0.1"/>
		<stop  offset="1" style="stop-color:#FFFFFF;stop-opacity:0"/>
	</radialGradient>
	<circle fill-rule="evenodd" clip-rule="evenodd" fill="url(#SVGID_1_)" cx="23.999" cy="24" r="24"/>
</g>
</svg>
