<?xml version="1.0" encoding="utf-8"?>
<!-- Generator: Adobe Illustrator 16.0.4, SVG Export Plug-In . SVG Version: 6.00 Build 0)  -->
<!DOCTYPE svg PUBLIC "-//W3C//DTD SVG 1.1//EN" "http://www.w3.org/Graphics/SVG/1.1/DTD/svg11.dtd">
<svg version="1.1" id="Capa_1" xmlns="http://www.w3.org/2000/svg" xmlns:xlink="http://www.w3.org/1999/xlink" x="0px" y="0px"
	 width="48px" height="48px" viewBox="0 0 48 48" enable-background="new 0 0 48 48" xml:space="preserve">
<g>
	<g>
		<ellipse fill-rule="evenodd" clip-rule="evenodd" fill="#E72565" cx="24.018" cy="24" rx="23.982" ry="24"/>
	</g>
	<g opacity="0.2">
		<path fill-rule="evenodd" clip-rule="evenodd" fill="#3F2824" d="M24.018,47.727c-13.201,0-23.91-10.674-23.981-23.868
			c0,0.048-0.001,0.095-0.001,0.143C0.035,37.255,10.772,48,24.018,48S48,37.255,48,24.001c0-0.046-0.001-0.092-0.001-0.137
			C47.925,37.056,37.218,47.727,24.018,47.727z"/>
	</g>
	<g opacity="0.2">
		<path fill-rule="evenodd" clip-rule="evenodd" fill="#FFFFFF" d="M23.983,0.272c-13.201,0-23.91,10.674-23.981,23.868
			C0.002,24.094,0,24.047,0,23.999C0,10.744,10.737,0,23.983,0c13.245,0,23.982,10.744,23.982,23.999
			c0,0.045-0.001,0.091-0.001,0.137C47.891,10.944,37.184,0.272,23.983,0.272z"/>
	</g>
</g>
<g>
	<path fill="none" d="M26.433,47.741c-0.046-0.043-0.092-0.089-0.136-0.137c-0.047-0.042-0.092-0.089-0.137-0.136
		c-0.046-0.043-0.092-0.089-0.136-0.137c-0.047-0.043-0.092-0.089-0.137-0.137c-0.046-0.042-0.092-0.088-0.136-0.136
		c-0.047-0.043-0.092-0.089-0.137-0.137c-0.047-0.043-0.092-0.089-0.137-0.137c-0.046-0.042-0.091-0.088-0.136-0.136
		c-0.047-0.043-0.092-0.089-0.137-0.137c-0.046-0.043-0.091-0.089-0.136-0.136c-0.047-0.043-0.092-0.089-0.137-0.137
		c-0.046-0.043-0.092-0.089-0.136-0.137c-0.047-0.042-0.092-0.088-0.137-0.136c-0.046-0.043-0.092-0.089-0.136-0.137
		c-0.047-0.043-0.092-0.089-0.137-0.137c-0.046-0.042-0.092-0.088-0.136-0.136c-0.047-0.043-0.092-0.089-0.137-0.137
		c-0.046-0.043-0.092-0.089-0.136-0.136c-0.047-0.043-0.092-0.089-0.137-0.137c-0.047-0.043-0.092-0.089-0.137-0.137
		c-0.046-0.043-0.091-0.089-0.136-0.136c-0.047-0.043-0.092-0.089-0.137-0.137c-0.046-0.043-0.091-0.089-0.136-0.137
		c-0.047-0.042-0.092-0.088-0.137-0.136c-0.046-0.043-0.092-0.089-0.136-0.137c-0.047-0.043-0.092-0.089-0.137-0.137
		c-0.046-0.042-0.092-0.088-0.136-0.136c-0.047-0.043-0.092-0.089-0.137-0.137c-0.046-0.043-0.092-0.089-0.136-0.136
		c-0.047-0.043-0.092-0.089-0.137-0.137c-0.046-0.043-0.092-0.089-0.136-0.137c-0.047-0.042-0.092-0.089-0.137-0.136
		c-0.046-0.043-0.092-0.089-0.136-0.137c-0.047-0.043-0.092-0.089-0.137-0.137c-0.047-0.042-0.092-0.088-0.137-0.136
		c-0.046-0.043-0.091-0.089-0.136-0.137c-0.047-0.043-0.092-0.089-0.137-0.137c-0.046-0.042-0.092-0.088-0.136-0.136
		c-0.047-0.043-0.092-0.089-0.137-0.137c-0.046-0.043-0.092-0.089-0.136-0.136c-0.047-0.043-0.092-0.089-0.137-0.137
		c-0.046-0.043-0.092-0.089-0.136-0.137c-0.047-0.042-0.092-0.088-0.137-0.136c-0.046-0.043-0.092-0.089-0.136-0.137
		c-0.047-0.043-0.092-0.089-0.137-0.137c-0.046-0.042-0.092-0.088-0.136-0.136c-0.047-0.043-0.092-0.089-0.137-0.137
		c-0.047-0.043-0.092-0.089-0.137-0.136c-0.046-0.043-0.091-0.089-0.136-0.137c-0.047-0.043-0.092-0.089-0.137-0.137
		c-0.046-0.043-0.091-0.089-0.136-0.136c-0.047-0.043-0.092-0.089-0.137-0.137c-0.046-0.043-0.092-0.089-0.136-0.137
		c-0.047-0.042-0.092-0.088-0.137-0.136c-0.046-0.043-0.092-0.089-0.136-0.137c-0.047-0.043-0.092-0.089-0.137-0.137
		c-0.046-0.042-0.092-0.088-0.136-0.136c-0.047-0.043-0.092-0.089-0.137-0.137c-0.046-0.043-0.092-0.089-0.136-0.136
		c-0.047-0.043-0.092-0.089-0.137-0.137c-0.047-0.043-0.092-0.089-0.136-0.137c-0.047-0.042-0.092-0.089-0.137-0.136
		c-0.047-0.043-0.092-0.089-0.137-0.137c-0.046-0.043-0.091-0.089-0.136-0.137c-0.047-0.042-0.092-0.088-0.137-0.136
		c-0.046-0.043-0.092-0.089-0.136-0.137c-0.047-0.043-0.092-0.089-0.137-0.137c-0.046-0.042-0.092-0.088-0.136-0.136
		c-0.047-0.043-0.092-0.089-0.137-0.137c-0.046-0.043-0.092-0.089-0.136-0.136c-0.047-0.043-0.092-0.089-0.137-0.137
		c-0.046-0.043-0.092-0.089-0.136-0.137c-0.047-0.042-0.092-0.088-0.137-0.136c-0.046-0.043-0.092-0.089-0.136-0.137
		c-0.047-0.043-0.092-0.089-0.137-0.137c-0.047-0.042-0.092-0.088-0.137-0.136c-0.046-0.043-0.091-0.089-0.136-0.137
		c-0.047-0.043-0.092-0.089-0.137-0.136c-0.046-0.043-0.091-0.089-0.136-0.137c-0.047-0.043-0.092-0.089-0.137-0.137
		c-0.046-0.043-0.092-0.089-0.136-0.136c-0.047-0.043-0.092-0.089-0.137-0.137c-0.046-0.043-0.092-0.089-0.136-0.137
		c-0.047-0.042-0.092-0.088-0.137-0.136c-0.046-0.043-0.092-0.089-0.136-0.137c-0.047-0.043-0.092-0.089-0.137-0.137
		c-0.046-0.042-0.092-0.088-0.136-0.136c-0.047-0.043-0.092-0.089-0.137-0.137c-0.047-0.043-0.092-0.089-0.136-0.136
		c-0.047-0.043-0.092-0.089-0.137-0.137c-0.047-0.043-0.092-0.089-0.137-0.137c-0.046-0.042-0.091-0.089-0.136-0.136
		c-0.047-0.043-0.092-0.089-0.137-0.137c-0.046-0.043-0.092-0.089-0.136-0.137c-0.047-0.042-0.092-0.088-0.137-0.136
		c-0.046-0.043-0.092-0.089-0.136-0.137c-0.047-0.043-0.092-0.089-0.137-0.137c-0.046-0.042-0.092-0.088-0.136-0.136
		c-0.047-0.043-0.092-0.089-0.137-0.137c-0.046-0.043-0.092-0.089-0.136-0.136c-0.047-0.043-0.092-0.089-0.137-0.137
		c-1.538-1.411-1.997-5.58-1.997-9.833c0-4.851,0.593-9.565,2.693-10.267c0.808-0.256,5.789-0.512,10.771-0.512
		s9.963,0.271,10.771,0.539c0.311,0.102,0.588,0.293,0.835,0.558c0.047,0.043,0.092,0.089,0.137,0.137
		c0.046,0.042,0.092,0.088,0.136,0.136c0.047,0.043,0.092,0.089,0.137,0.137c0.047,0.043,0.092,0.089,0.137,0.137
		c0.046,0.042,0.091,0.088,0.136,0.136c0.047,0.043,0.092,0.089,0.137,0.137c0.046,0.043,0.091,0.089,0.136,0.136
		c0.047,0.043,0.092,0.089,0.137,0.137c0.046,0.043,0.092,0.089,0.136,0.137c0.047,0.042,0.092,0.089,0.137,0.136
		c0.046,0.043,0.092,0.089,0.136,0.137c0.047,0.043,0.092,0.089,0.137,0.137c0.046,0.042,0.092,0.088,0.136,0.136
		c0.047,0.043,0.092,0.089,0.137,0.137c0.046,0.043,0.092,0.089,0.136,0.136c0.047,0.043,0.092,0.089,0.137,0.137
		c0.046,0.043,0.092,0.089,0.136,0.137c0.047,0.043,0.092,0.089,0.137,0.136c0.047,0.043,0.092,0.089,0.137,0.137
		c0.046,0.043,0.091,0.089,0.136,0.137c0.047,0.042,0.092,0.088,0.137,0.136c0.046,0.043,0.092,0.089,0.136,0.137
		c0.047,0.043,0.092,0.089,0.137,0.137c0.046,0.042,0.092,0.088,0.136,0.136c0.047,0.043,0.092,0.089,0.137,0.137
		c0.046,0.043,0.092,0.089,0.136,0.136c0.047,0.043,0.092,0.089,0.137,0.137c0.046,0.043,0.092,0.089,0.136,0.137
		c0.047,0.042,0.092,0.089,0.137,0.136c0.046,0.043,0.092,0.089,0.136,0.137c0.047,0.043,0.092,0.089,0.137,0.137
		c0.047,0.042,0.092,0.088,0.137,0.136c0.046,0.043,0.091,0.089,0.136,0.137c0.047,0.043,0.092,0.089,0.137,0.137
		c0.046,0.042,0.091,0.088,0.136,0.136c0.047,0.043,0.092,0.089,0.137,0.137c0.046,0.043,0.092,0.089,0.136,0.136
		c0.047,0.043,0.092,0.089,0.137,0.137c0.046,0.043,0.092,0.089,0.136,0.137c0.047,0.042,0.092,0.089,0.137,0.136
		c0.046,0.043,0.092,0.089,0.136,0.137c0.047,0.043,0.092,0.089,0.137,0.137c0.046,0.042,0.092,0.088,0.136,0.136
		c0.047,0.043,0.092,0.089,0.137,0.137c0.047,0.043,0.092,0.089,0.136,0.136c0.047,0.043,0.092,0.089,0.137,0.137
		c0.047,0.043,0.092,0.089,0.137,0.137c0.046,0.043,0.091,0.089,0.136,0.136c0.047,0.043,0.092,0.089,0.137,0.137
		c0.046,0.043,0.092,0.089,0.136,0.137c0.047,0.042,0.092,0.088,0.137,0.136c0.046,0.043,0.092,0.089,0.136,0.137
		c0.047,0.043,0.092,0.089,0.137,0.137c0.046,0.042,0.092,0.088,0.136,0.136c0.047,0.043,0.092,0.089,0.137,0.137
		c0.046,0.043,0.092,0.089,0.136,0.136c0.047,0.043,0.092,0.089,0.137,0.137c0.046,0.043,0.092,0.089,0.136,0.137
		c0.047,0.042,0.092,0.089,0.137,0.136c0.047,0.043,0.092,0.089,0.137,0.137c0.046,0.043,0.091,0.089,0.136,0.137
		c0.047,0.042,0.092,0.088,0.137,0.136c0.046,0.043,0.091,0.089,0.136,0.137c0.047,0.043,0.092,0.089,0.137,0.137
		c0.046,0.042,0.092,0.088,0.136,0.136c0.047,0.043,0.092,0.089,0.137,0.137c0.046,0.043,0.092,0.089,0.136,0.136
		c0.047,0.043,0.092,0.089,0.137,0.137c0.046,0.043,0.092,0.089,0.136,0.137c0.047,0.042,0.092,0.089,0.137,0.136
		c0.046,0.043,0.092,0.089,0.136,0.137c0.047,0.043,0.092,0.089,0.137,0.137c0.047,0.042,0.092,0.088,0.136,0.136
		c0.047,0.043,0.092,0.089,0.137,0.137c0.047,0.043,0.092,0.089,0.137,0.136c0.046,0.043,0.091,0.089,0.136,0.137
		c0.047,0.043,0.092,0.089,0.137,0.137c0.046,0.043,0.092,0.089,0.136,0.136c0.047,0.043,0.092,0.089,0.137,0.137
		c0.046,0.043,0.092,0.089,0.136,0.137c0.047,0.042,0.092,0.088,0.137,0.136c0.046,0.043,0.092,0.089,0.136,0.137
		c0.047,0.043,0.092,0.089,0.137,0.137c0.046,0.042,0.092,0.088,0.136,0.136c0.047,0.043,0.092,0.089,0.137,0.137
		c0.046,0.043,0.092,0.089,0.136,0.136c0.047,0.043,0.092,0.089,0.137,0.137c0.047,0.043,0.092,0.089,0.137,0.137
		c0.043,0.04,0.086,0.083,0.128,0.128C47.953,25.733,48,24.873,48,24C48,10.746,37.263,0.001,24.018,0.001S0.035,10.746,0.035,24
		c0,13.255,10.737,24,23.982,24c0.858,0,1.705-0.046,2.54-0.134C26.516,47.826,26.474,47.785,26.433,47.741z"/>
	<path opacity="0.2" fill="#1E1E1C" d="M47.598,26.317c-0.045-0.048-0.09-0.094-0.137-0.137c-0.044-0.047-0.09-0.093-0.136-0.136
		c-0.045-0.048-0.09-0.094-0.137-0.137c-0.044-0.048-0.09-0.094-0.136-0.136c-0.045-0.048-0.09-0.094-0.137-0.137
		c-0.044-0.048-0.09-0.094-0.136-0.137c-0.045-0.048-0.09-0.094-0.137-0.136c-0.044-0.048-0.09-0.094-0.136-0.137
		c-0.045-0.048-0.09-0.094-0.137-0.137c-0.044-0.047-0.09-0.093-0.136-0.136c-0.045-0.048-0.09-0.094-0.137-0.137
		c-0.045-0.048-0.09-0.094-0.136-0.137c-0.045-0.047-0.09-0.093-0.137-0.136c-0.045-0.048-0.09-0.094-0.137-0.137
		c-0.044-0.048-0.089-0.094-0.136-0.136c-0.045-0.048-0.09-0.094-0.137-0.137c-0.044-0.048-0.09-0.094-0.136-0.137
		c-0.045-0.047-0.09-0.094-0.137-0.136c-0.044-0.048-0.09-0.094-0.136-0.137c-0.045-0.048-0.09-0.094-0.137-0.137
		c-0.044-0.047-0.09-0.093-0.136-0.136c-0.045-0.048-0.09-0.094-0.137-0.137c-0.044-0.048-0.09-0.094-0.136-0.136
		c-0.045-0.048-0.09-0.094-0.137-0.137c-0.045-0.048-0.09-0.094-0.136-0.137c-0.045-0.048-0.09-0.094-0.137-0.136
		c-0.045-0.048-0.09-0.094-0.136-0.137c-0.045-0.048-0.09-0.094-0.137-0.137c-0.045-0.047-0.09-0.094-0.137-0.136
		c-0.044-0.048-0.09-0.094-0.136-0.137c-0.045-0.048-0.09-0.094-0.137-0.137c-0.044-0.047-0.09-0.093-0.136-0.136
		c-0.045-0.048-0.09-0.094-0.137-0.137c-0.044-0.048-0.09-0.094-0.136-0.136c-0.045-0.048-0.09-0.094-0.137-0.137
		c-0.044-0.048-0.09-0.094-0.136-0.137c-0.045-0.048-0.09-0.094-0.137-0.136c-0.044-0.048-0.09-0.094-0.136-0.137
		c-0.045-0.048-0.09-0.094-0.137-0.137c-0.045-0.047-0.09-0.093-0.136-0.136c-0.045-0.048-0.09-0.094-0.137-0.137
		c-0.045-0.048-0.09-0.094-0.137-0.137c-0.044-0.047-0.089-0.093-0.136-0.136c-0.045-0.048-0.09-0.094-0.137-0.137
		c-0.044-0.048-0.09-0.094-0.136-0.136c-0.045-0.048-0.09-0.094-0.137-0.137c-0.044-0.048-0.09-0.094-0.136-0.137
		c-0.045-0.047-0.09-0.094-0.137-0.136c-0.044-0.048-0.09-0.094-0.136-0.137c-0.045-0.048-0.09-0.094-0.137-0.137
		c-0.044-0.047-0.09-0.093-0.136-0.136c-0.045-0.048-0.09-0.094-0.137-0.137c-0.045-0.048-0.09-0.094-0.136-0.136
		c-0.045-0.048-0.09-0.094-0.137-0.137c-0.045-0.048-0.09-0.094-0.136-0.137c-0.045-0.048-0.09-0.094-0.137-0.136
		c-0.045-0.048-0.09-0.094-0.137-0.137c-0.044-0.048-0.09-0.094-0.136-0.137c-0.045-0.047-0.09-0.094-0.137-0.136
		c-0.044-0.048-0.09-0.094-0.136-0.137c-0.045-0.048-0.09-0.094-0.137-0.137c-0.044-0.047-0.09-0.093-0.136-0.136
		c-0.045-0.048-0.09-0.094-0.137-0.137c-0.044-0.048-0.09-0.094-0.136-0.136c-0.045-0.048-0.09-0.094-0.137-0.137
		c-0.044-0.048-0.09-0.094-0.136-0.137c-0.045-0.048-0.09-0.094-0.137-0.136c-0.045-0.048-0.09-0.094-0.136-0.137
		c-0.045-0.048-0.09-0.094-0.137-0.137c-0.045-0.047-0.09-0.093-0.137-0.136c-0.044-0.048-0.09-0.094-0.136-0.137
		c-0.045-0.048-0.09-0.094-0.137-0.137c-0.044-0.047-0.09-0.093-0.136-0.136c-0.045-0.048-0.09-0.094-0.137-0.137
		c-0.044-0.048-0.09-0.094-0.136-0.136c-0.045-0.048-0.09-0.094-0.137-0.137c-0.044-0.048-0.09-0.094-0.136-0.137
		c-0.045-0.047-0.09-0.094-0.137-0.136c-0.044-0.048-0.09-0.094-0.136-0.137c-0.045-0.048-0.09-0.094-0.137-0.137
		c-0.045-0.047-0.09-0.093-0.136-0.136c-0.045-0.048-0.09-0.094-0.137-0.137c-0.045-0.048-0.09-0.094-0.136-0.136
		c-0.045-0.048-0.09-0.094-0.137-0.137c-0.045-0.048-0.09-0.094-0.137-0.137c-0.044-0.048-0.09-0.094-0.136-0.136
		c-0.045-0.048-0.09-0.094-0.137-0.137c-0.247-0.265-0.524-0.456-0.835-0.558c-0.808-0.269-5.789-0.539-10.771-0.539
		s-9.963,0.256-10.771,0.512c-2.101,0.701-2.693,5.416-2.693,10.267c0,4.253,0.459,8.422,1.997,9.833
		c0.045,0.048,0.09,0.094,0.137,0.137c0.044,0.047,0.09,0.093,0.136,0.136c0.045,0.048,0.09,0.094,0.137,0.137
		c0.044,0.048,0.09,0.094,0.136,0.136c0.045,0.048,0.09,0.094,0.137,0.137c0.044,0.048,0.09,0.094,0.136,0.137
		c0.045,0.048,0.09,0.094,0.137,0.136c0.044,0.048,0.09,0.094,0.136,0.137c0.045,0.048,0.09,0.094,0.137,0.137
		c0.045,0.047,0.09,0.094,0.136,0.136c0.045,0.048,0.09,0.094,0.137,0.137c0.045,0.048,0.09,0.094,0.137,0.137
		c0.044,0.047,0.089,0.093,0.136,0.136c0.045,0.048,0.09,0.094,0.137,0.137c0.044,0.048,0.09,0.094,0.136,0.136
		c0.045,0.048,0.09,0.094,0.137,0.137c0.044,0.048,0.09,0.094,0.136,0.137c0.045,0.048,0.09,0.094,0.137,0.136
		c0.044,0.048,0.09,0.094,0.136,0.137c0.045,0.048,0.09,0.094,0.137,0.137c0.044,0.047,0.09,0.093,0.136,0.136
		c0.045,0.048,0.09,0.094,0.137,0.137c0.045,0.048,0.09,0.094,0.136,0.137c0.045,0.047,0.09,0.093,0.137,0.136
		c0.045,0.048,0.09,0.094,0.136,0.137c0.045,0.048,0.09,0.094,0.137,0.136c0.045,0.048,0.09,0.094,0.137,0.137
		c0.044,0.048,0.09,0.094,0.136,0.137c0.045,0.048,0.09,0.094,0.137,0.136c0.044,0.048,0.09,0.094,0.136,0.137
		c0.045,0.048,0.09,0.094,0.137,0.137c0.044,0.047,0.09,0.093,0.136,0.136c0.045,0.048,0.09,0.094,0.137,0.137
		c0.044,0.048,0.09,0.094,0.136,0.136c0.045,0.048,0.09,0.094,0.137,0.137c0.044,0.048,0.09,0.094,0.136,0.137
		c0.045,0.048,0.09,0.094,0.137,0.136c0.045,0.048,0.09,0.094,0.136,0.137c0.045,0.048,0.09,0.094,0.137,0.137
		c0.045,0.047,0.09,0.094,0.137,0.136c0.044,0.048,0.089,0.094,0.136,0.137c0.045,0.048,0.09,0.094,0.137,0.137
		c0.044,0.047,0.09,0.093,0.136,0.136c0.045,0.048,0.09,0.094,0.137,0.137c0.044,0.048,0.09,0.094,0.136,0.136
		c0.045,0.048,0.09,0.094,0.137,0.137c0.044,0.048,0.09,0.094,0.136,0.137c0.045,0.048,0.09,0.094,0.137,0.136
		c0.044,0.048,0.09,0.094,0.136,0.137c0.045,0.048,0.09,0.094,0.137,0.137c0.045,0.047,0.09,0.093,0.136,0.136
		c0.045,0.048,0.09,0.094,0.137,0.137c0.045,0.048,0.09,0.094,0.136,0.137c0.045,0.047,0.09,0.093,0.137,0.136
		c0.045,0.048,0.09,0.094,0.137,0.137c0.044,0.048,0.09,0.094,0.136,0.136c0.045,0.048,0.09,0.094,0.137,0.137
		c0.044,0.048,0.09,0.094,0.136,0.137c0.045,0.048,0.09,0.094,0.137,0.136c0.044,0.048,0.09,0.094,0.136,0.137
		c0.045,0.048,0.09,0.094,0.137,0.137c0.044,0.047,0.09,0.093,0.136,0.136c0.045,0.048,0.09,0.094,0.137,0.137
		c0.044,0.048,0.09,0.094,0.136,0.136c0.045,0.048,0.09,0.094,0.137,0.137c0.045,0.048,0.09,0.094,0.136,0.137
		c0.045,0.048,0.09,0.094,0.137,0.136c0.045,0.048,0.09,0.094,0.137,0.137c0.044,0.048,0.09,0.094,0.136,0.137
		c0.045,0.047,0.09,0.094,0.137,0.136c0.044,0.048,0.09,0.094,0.136,0.137c0.045,0.048,0.09,0.094,0.137,0.137
		c0.044,0.047,0.09,0.093,0.136,0.136c0.045,0.048,0.09,0.094,0.137,0.137c0.044,0.048,0.09,0.094,0.136,0.136
		c0.045,0.048,0.09,0.094,0.137,0.137c0.044,0.048,0.09,0.094,0.136,0.137c0.045,0.048,0.09,0.094,0.137,0.136
		c0.045,0.048,0.09,0.094,0.136,0.137c0.045,0.048,0.09,0.094,0.137,0.137c0.045,0.047,0.09,0.093,0.136,0.136
		c0.045,0.048,0.09,0.094,0.137,0.137c0.045,0.048,0.09,0.094,0.137,0.137c0.044,0.047,0.09,0.093,0.136,0.136
		c0.045,0.048,0.09,0.094,0.137,0.137c0.044,0.048,0.09,0.094,0.136,0.136c0.045,0.048,0.09,0.094,0.137,0.137
		c0.044,0.048,0.09,0.094,0.136,0.137c0.045,0.048,0.09,0.094,0.137,0.136c0.044,0.048,0.09,0.094,0.136,0.137
		c0.045,0.048,0.09,0.094,0.137,0.137c0.045,0.047,0.09,0.093,0.136,0.136c0.045,0.048,0.09,0.094,0.137,0.137
		c0.045,0.048,0.09,0.094,0.136,0.136c0.045,0.048,0.09,0.094,0.137,0.137c0.045,0.048,0.09,0.094,0.137,0.137
		c0.044,0.048,0.09,0.094,0.136,0.136c0.045,0.048,0.09,0.094,0.137,0.137c0.044,0.048,0.09,0.094,0.136,0.137
		c0.045,0.047,0.09,0.094,0.137,0.136c0.044,0.048,0.09,0.094,0.136,0.137c0.041,0.044,0.083,0.085,0.125,0.125
		c11.203-1.181,20.106-10.079,21.305-21.284c-0.042-0.045-0.085-0.088-0.128-0.128C47.689,26.406,47.645,26.36,47.598,26.317z"/>
</g>
<g>
	<path fill="#FBFBFB" d="M21.308,30.063V17.938L29.386,24 M34.771,13.76c-0.808-0.269-5.789-0.538-10.771-0.538
		c-4.982,0-9.964,0.256-10.771,0.512c-2.101,0.7-2.692,5.416-2.692,10.267c0,4.837,0.592,9.565,2.692,10.252
		c0.808,0.271,5.789,0.526,10.771,0.526c4.981,0,9.963-0.255,10.771-0.526c2.101-0.687,2.692-5.415,2.692-10.252
		C37.464,19.149,36.872,14.447,34.771,13.76z"/>
</g>
<radialGradient id="SVGID_1_" cx="7048.9531" cy="9200.8633" r="163.4863" gradientTransform="matrix(0.1468 0 0 0.1468 -1010.7898 -1326.7184)" gradientUnits="userSpaceOnUse">
	<stop  offset="0" style="stop-color:#FFFFFF;stop-opacity:0.1"/>
	<stop  offset="1" style="stop-color:#FFFFFF;stop-opacity:0"/>
</radialGradient>
<circle fill-rule="evenodd" clip-rule="evenodd" fill="url(#SVGID_1_)" cx="23.999" cy="24" r="24"/>
</svg>
